<?xml version="1.0" encoding="UTF-8" standalone="no"?>
<!DOCTYPE svg PUBLIC "-//W3C//DTD SVG 1.1//EN"
 "http://www.w3.org/Graphics/SVG/1.1/DTD/svg11.dtd">
<!-- Generated by graphviz version 2.42.3 (20191010.1750)
 -->
<!-- Title: snakemake_dag Pages: 1 -->
<svg width="1135pt" height="692pt"
 viewBox="0.00 0.00 1135.00 692.00" xmlns="http://www.w3.org/2000/svg" xmlns:xlink="http://www.w3.org/1999/xlink">
<g id="graph0" class="graph" transform="scale(1 1) rotate(0) translate(4 688)">
<title>snakemake_dag</title>
<polygon fill="white" stroke="transparent" points="-4,4 -4,-688 1131,-688 1131,4 -4,4"/>
<!-- 0 -->
<g id="node1" class="node">
<title>0</title>
<path fill="none" stroke="#d86e56" stroke-width="2" d="M797.5,-36C797.5,-36 767.5,-36 767.5,-36 761.5,-36 755.5,-30 755.5,-24 755.5,-24 755.5,-12 755.5,-12 755.5,-6 761.5,0 767.5,0 767.5,0 797.5,0 797.5,0 803.5,0 809.5,-6 809.5,-12 809.5,-12 809.5,-24 809.5,-24 809.5,-30 803.5,-36 797.5,-36"/>
<text text-anchor="middle" x="782.5" y="-15.5" font-family="sans" font-size="10.00">all</text>
</g>
<!-- 1 -->
<g id="node2" class="node">
<title>1</title>
<path fill="none" stroke="#8fd856" stroke-width="2" d="M69,-252C69,-252 12,-252 12,-252 6,-252 0,-246 0,-240 0,-240 0,-228 0,-228 0,-222 6,-216 12,-216 12,-216 69,-216 69,-216 75,-216 81,-222 81,-228 81,-228 81,-240 81,-240 81,-246 75,-252 69,-252"/>
<text text-anchor="middle" x="40.5" y="-231.5" font-family="sans" font-size="10.00">annotate_truth</text>
</g>
<!-- 1&#45;&gt;0 -->
<g id="edge1" class="edge">
<title>1&#45;&gt;0</title>
<path fill="none" stroke="grey" stroke-width="2" d="M73.95,-215.93C140.2,-182.85 293.56,-109.97 430.5,-72 542.48,-40.95 679.86,-26.92 744.92,-21.66"/>
<polygon fill="grey" stroke="grey" stroke-width="2" points="745.4,-25.13 755.09,-20.86 744.85,-18.15 745.4,-25.13"/>
</g>
<!-- 20 -->
<g id="node21" class="node">
<title>20</title>
<path fill="none" stroke="#d8a456" stroke-width="2" d="M314.5,-180C314.5,-180 284.5,-180 284.5,-180 278.5,-180 272.5,-174 272.5,-168 272.5,-168 272.5,-156 272.5,-156 272.5,-150 278.5,-144 284.5,-144 284.5,-144 314.5,-144 314.5,-144 320.5,-144 326.5,-150 326.5,-156 326.5,-156 326.5,-168 326.5,-168 326.5,-174 320.5,-180 314.5,-180"/>
<text text-anchor="middle" x="299.5" y="-159.5" font-family="sans" font-size="10.00">multiqc</text>
</g>
<!-- 1&#45;&gt;20 -->
<g id="edge40" class="edge">
<title>1&#45;&gt;20</title>
<path fill="none" stroke="grey" stroke-width="2" d="M81.29,-220.17C86.07,-218.73 90.89,-217.31 95.5,-216 153.58,-199.49 221.55,-182.24 262.52,-172.07"/>
<polygon fill="grey" stroke="grey" stroke-width="2" points="263.47,-175.44 272.33,-169.64 261.79,-168.64 263.47,-175.44"/>
</g>
<!-- 2 -->
<g id="node3" class="node">
<title>2</title>
<path fill="none" stroke="#56d0d8" stroke-width="2" d="M1051.5,-108C1051.5,-108 1021.5,-108 1021.5,-108 1015.5,-108 1009.5,-102 1009.5,-96 1009.5,-96 1009.5,-84 1009.5,-84 1009.5,-78 1015.5,-72 1021.5,-72 1021.5,-72 1051.5,-72 1051.5,-72 1057.5,-72 1063.5,-78 1063.5,-84 1063.5,-84 1063.5,-96 1063.5,-96 1063.5,-102 1057.5,-108 1051.5,-108"/>
<text text-anchor="middle" x="1036.5" y="-87.5" font-family="sans" font-size="10.00">interval</text>
</g>
<!-- 2&#45;&gt;0 -->
<g id="edge2" class="edge">
<title>2&#45;&gt;0</title>
<path fill="none" stroke="grey" stroke-width="2" d="M1009.42,-78.46C1003.24,-76.2 996.68,-73.92 990.5,-72 931.46,-53.62 861.56,-36.8 819.69,-27.24"/>
<polygon fill="grey" stroke="grey" stroke-width="2" points="820.2,-23.77 809.68,-24.97 818.66,-30.59 820.2,-23.77"/>
</g>
<!-- 3 -->
<g id="node4" class="node">
<title>3</title>
<path fill="none" stroke="#566bd8" stroke-width="2" d="M645.5,-612C645.5,-612 615.5,-612 615.5,-612 609.5,-612 603.5,-606 603.5,-600 603.5,-600 603.5,-588 603.5,-588 603.5,-582 609.5,-576 615.5,-576 615.5,-576 645.5,-576 645.5,-576 651.5,-576 657.5,-582 657.5,-588 657.5,-588 657.5,-600 657.5,-600 657.5,-606 651.5,-612 645.5,-612"/>
<text text-anchor="middle" x="630.5" y="-591.5" font-family="sans" font-size="10.00">fasta</text>
</g>
<!-- 3&#45;&gt;2 -->
<g id="edge13" class="edge">
<title>3&#45;&gt;2</title>
<path fill="none" stroke="grey" stroke-width="2" d="M657.79,-589.61C749.58,-577.47 1041.5,-532.44 1041.5,-451 1041.5,-451 1041.5,-451 1041.5,-233 1041.5,-192.97 1039.49,-146.63 1038.02,-118.07"/>
<polygon fill="grey" stroke="grey" stroke-width="2" points="1041.51,-117.84 1037.49,-108.04 1034.52,-118.21 1041.51,-117.84"/>
</g>
<!-- 5 -->
<g id="node6" class="node">
<title>5</title>
<path fill="none" stroke="#d8cb56" stroke-width="2" d="M1115,-324C1115,-324 1082,-324 1082,-324 1076,-324 1070,-318 1070,-312 1070,-312 1070,-300 1070,-300 1070,-294 1076,-288 1082,-288 1082,-288 1115,-288 1115,-288 1121,-288 1127,-294 1127,-300 1127,-300 1127,-312 1127,-312 1127,-318 1121,-324 1115,-324"/>
<text text-anchor="middle" x="1098.5" y="-303.5" font-family="sans" font-size="10.00">all_depth</text>
</g>
<!-- 3&#45;&gt;5 -->
<g id="edge15" class="edge">
<title>3&#45;&gt;5</title>
<path fill="none" stroke="grey" stroke-width="2" d="M657.57,-593.62C741.93,-594.94 997.89,-594.34 1055.5,-540 1112.53,-486.21 1108.48,-383.37 1102.68,-334.33"/>
<polygon fill="grey" stroke="grey" stroke-width="2" points="1106.12,-333.63 1101.36,-324.17 1099.18,-334.54 1106.12,-333.63"/>
</g>
<!-- 7 -->
<g id="node8" class="node">
<title>7</title>
<path fill="none" stroke="#b6d856" stroke-width="2" d="M409,-252C409,-252 340,-252 340,-252 334,-252 328,-246 328,-240 328,-240 328,-228 328,-228 328,-222 334,-216 340,-216 340,-216 409,-216 409,-216 415,-216 421,-222 421,-228 421,-228 421,-240 421,-240 421,-246 415,-252 409,-252"/>
<text text-anchor="middle" x="374.5" y="-231.5" font-family="sans" font-size="10.00">DeepT_coverage</text>
</g>
<!-- 3&#45;&gt;7 -->
<g id="edge18" class="edge">
<title>3&#45;&gt;7</title>
<path fill="none" stroke="grey" stroke-width="2" d="M603.34,-585.09C579.72,-577.03 545.87,-562.49 523.5,-540 441.15,-457.2 397.01,-319.83 381.27,-261.99"/>
<polygon fill="grey" stroke="grey" stroke-width="2" points="384.6,-260.91 378.66,-252.14 377.84,-262.71 384.6,-260.91"/>
</g>
<!-- 9 -->
<g id="node10" class="node">
<title>9</title>
<path fill="none" stroke="#80d856" stroke-width="2" d="M574.5,-540C574.5,-540 544.5,-540 544.5,-540 538.5,-540 532.5,-534 532.5,-528 532.5,-528 532.5,-516 532.5,-516 532.5,-510 538.5,-504 544.5,-504 544.5,-504 574.5,-504 574.5,-504 580.5,-504 586.5,-510 586.5,-516 586.5,-516 586.5,-528 586.5,-528 586.5,-534 580.5,-540 574.5,-540"/>
<text text-anchor="middle" x="559.5" y="-519.5" font-family="sans" font-size="10.00">intersect</text>
</g>
<!-- 3&#45;&gt;9 -->
<g id="edge20" class="edge">
<title>3&#45;&gt;9</title>
<path fill="none" stroke="grey" stroke-width="2" d="M612.95,-575.7C604.27,-567.14 593.64,-556.66 584.15,-547.3"/>
<polygon fill="grey" stroke="grey" stroke-width="2" points="586.43,-544.63 576.85,-540.1 581.51,-549.62 586.43,-544.63"/>
</g>
<!-- 11 -->
<g id="node12" class="node">
<title>11</title>
<path fill="none" stroke="#56d8d0" stroke-width="2" d="M889.5,-324C889.5,-324 859.5,-324 859.5,-324 853.5,-324 847.5,-318 847.5,-312 847.5,-312 847.5,-300 847.5,-300 847.5,-294 853.5,-288 859.5,-288 859.5,-288 889.5,-288 889.5,-288 895.5,-288 901.5,-294 901.5,-300 901.5,-300 901.5,-312 901.5,-312 901.5,-318 895.5,-324 889.5,-324"/>
<text text-anchor="middle" x="874.5" y="-303.5" font-family="sans" font-size="10.00">gatk_G</text>
</g>
<!-- 3&#45;&gt;11 -->
<g id="edge22" class="edge">
<title>3&#45;&gt;11</title>
<path fill="none" stroke="grey" stroke-width="2" d="M657.73,-592.26C696.23,-589.75 766.54,-579.63 808.5,-540 866.75,-484.98 874.85,-382.74 875.19,-334.09"/>
<polygon fill="grey" stroke="grey" stroke-width="2" points="878.68,-334 875.15,-324.01 871.68,-334.03 878.68,-334"/>
</g>
<!-- 12 -->
<g id="node13" class="node">
<title>12</title>
<path fill="none" stroke="#d8bc56" stroke-width="2" d="M839.5,-396C839.5,-396 809.5,-396 809.5,-396 803.5,-396 797.5,-390 797.5,-384 797.5,-384 797.5,-372 797.5,-372 797.5,-366 803.5,-360 809.5,-360 809.5,-360 839.5,-360 839.5,-360 845.5,-360 851.5,-366 851.5,-372 851.5,-372 851.5,-384 851.5,-384 851.5,-390 845.5,-396 839.5,-396"/>
<text text-anchor="middle" x="824.5" y="-375.5" font-family="sans" font-size="10.00">gatk_H</text>
</g>
<!-- 3&#45;&gt;12 -->
<g id="edge24" class="edge">
<title>3&#45;&gt;12</title>
<path fill="none" stroke="grey" stroke-width="2" d="M657.64,-591.22C691.95,-587.49 750.49,-575.91 783.5,-540 817.64,-502.86 824.27,-441.31 825.04,-406.05"/>
<polygon fill="grey" stroke="grey" stroke-width="2" points="828.54,-406.03 825.12,-396.01 821.54,-405.98 828.54,-406.03"/>
</g>
<!-- 15 -->
<g id="node16" class="node">
<title>15</title>
<path fill="none" stroke="#56d892" stroke-width="2" d="M670.5,-324C670.5,-324 640.5,-324 640.5,-324 634.5,-324 628.5,-318 628.5,-312 628.5,-312 628.5,-300 628.5,-300 628.5,-294 634.5,-288 640.5,-288 640.5,-288 670.5,-288 670.5,-288 676.5,-288 682.5,-294 682.5,-300 682.5,-300 682.5,-312 682.5,-312 682.5,-318 676.5,-324 670.5,-324"/>
<text text-anchor="middle" x="655.5" y="-303.5" font-family="sans" font-size="10.00">mpileup</text>
</g>
<!-- 3&#45;&gt;15 -->
<g id="edge28" class="edge">
<title>3&#45;&gt;15</title>
<path fill="none" stroke="grey" stroke-width="2" d="M640.37,-575.92C653.28,-552.49 675.24,-508.65 683.5,-468 693.03,-421.09 677.84,-366.07 666.37,-334.01"/>
<polygon fill="grey" stroke="grey" stroke-width="2" points="669.58,-332.6 662.81,-324.45 663.01,-335.05 669.58,-332.6"/>
</g>
<!-- 16 -->
<g id="node17" class="node">
<title>16</title>
<path fill="none" stroke="#56d86b" stroke-width="2" d="M1001.5,-252C1001.5,-252 951.5,-252 951.5,-252 945.5,-252 939.5,-246 939.5,-240 939.5,-240 939.5,-228 939.5,-228 939.5,-222 945.5,-216 951.5,-216 951.5,-216 1001.5,-216 1001.5,-216 1007.5,-216 1013.5,-222 1013.5,-228 1013.5,-228 1013.5,-240 1013.5,-240 1013.5,-246 1007.5,-252 1001.5,-252"/>
<text text-anchor="middle" x="976.5" y="-237" font-family="sans" font-size="10.00">concordance</text>
<text text-anchor="middle" x="976.5" y="-226" font-family="sans" font-size="10.00">caller: gatk</text>
</g>
<!-- 3&#45;&gt;16 -->
<g id="edge30" class="edge">
<title>3&#45;&gt;16</title>
<path fill="none" stroke="grey" stroke-width="2" d="M657.54,-587.82C738.2,-571.62 971.5,-518.9 971.5,-451 971.5,-451 971.5,-451 971.5,-377 971.5,-336.97 973.51,-290.63 974.98,-262.07"/>
<polygon fill="grey" stroke="grey" stroke-width="2" points="978.48,-262.21 975.51,-252.04 971.49,-261.84 978.48,-262.21"/>
</g>
<!-- 17 -->
<g id="node18" class="node">
<title>17</title>
<path fill="none" stroke="#56d86b" stroke-width="2" d="M833.5,-252C833.5,-252 771.5,-252 771.5,-252 765.5,-252 759.5,-246 759.5,-240 759.5,-240 759.5,-228 759.5,-228 759.5,-222 765.5,-216 771.5,-216 771.5,-216 833.5,-216 833.5,-216 839.5,-216 845.5,-222 845.5,-228 845.5,-228 845.5,-240 845.5,-240 845.5,-246 839.5,-252 833.5,-252"/>
<text text-anchor="middle" x="802.5" y="-237" font-family="sans" font-size="10.00">concordance</text>
<text text-anchor="middle" x="802.5" y="-226" font-family="sans" font-size="10.00">caller: samtools</text>
</g>
<!-- 3&#45;&gt;17 -->
<g id="edge33" class="edge">
<title>3&#45;&gt;17</title>
<path fill="none" stroke="grey" stroke-width="2" d="M657.63,-580.52C698.08,-559.81 769.5,-514.3 769.5,-451 769.5,-451 769.5,-451 769.5,-377 769.5,-335.97 782.73,-289.97 792.44,-261.74"/>
<polygon fill="grey" stroke="grey" stroke-width="2" points="795.78,-262.78 795.82,-252.19 789.18,-260.45 795.78,-262.78"/>
</g>
<!-- 21 -->
<g id="node22" class="node">
<title>21</title>
<path fill="none" stroke="#d87d56" stroke-width="2" d="M297.5,-396C297.5,-396 267.5,-396 267.5,-396 261.5,-396 255.5,-390 255.5,-384 255.5,-384 255.5,-372 255.5,-372 255.5,-366 261.5,-360 267.5,-360 267.5,-360 297.5,-360 297.5,-360 303.5,-360 309.5,-366 309.5,-372 309.5,-372 309.5,-384 309.5,-384 309.5,-390 303.5,-396 297.5,-396"/>
<text text-anchor="middle" x="282.5" y="-375.5" font-family="sans" font-size="10.00">stats</text>
</g>
<!-- 3&#45;&gt;21 -->
<g id="edge50" class="edge">
<title>3&#45;&gt;21</title>
<path fill="none" stroke="grey" stroke-width="2" d="M603.07,-591.85C536.31,-588.51 367.88,-576.56 327.5,-540 289.67,-505.76 282.58,-442.61 281.85,-406.41"/>
<polygon fill="grey" stroke="grey" stroke-width="2" points="285.34,-406.09 281.79,-396.11 278.34,-406.12 285.34,-406.09"/>
</g>
<!-- 22 -->
<g id="node23" class="node">
<title>22</title>
<path fill="none" stroke="#56d8a9" stroke-width="2" d="M191,-540C191,-540 150,-540 150,-540 144,-540 138,-534 138,-528 138,-528 138,-516 138,-516 138,-510 144,-504 150,-504 150,-504 191,-504 191,-504 197,-504 203,-510 203,-516 203,-516 203,-528 203,-528 203,-534 197,-540 191,-540"/>
<text text-anchor="middle" x="170.5" y="-519.5" font-family="sans" font-size="10.00">hs_metrics</text>
</g>
<!-- 3&#45;&gt;22 -->
<g id="edge51" class="edge">
<title>3&#45;&gt;22</title>
<path fill="none" stroke="grey" stroke-width="2" d="M603.14,-591.97C537.16,-588.98 364.18,-578.08 213.16,-539.75"/>
<polygon fill="grey" stroke="grey" stroke-width="2" points="213.8,-536.3 203.24,-537.19 212.05,-543.08 213.8,-536.3"/>
</g>
<!-- 23 -->
<g id="node24" class="node">
<title>23</title>
<path fill="none" stroke="#56d8b9" stroke-width="2" d="M263.5,-540C263.5,-540 233.5,-540 233.5,-540 227.5,-540 221.5,-534 221.5,-528 221.5,-528 221.5,-516 221.5,-516 221.5,-510 227.5,-504 233.5,-504 233.5,-504 263.5,-504 263.5,-504 269.5,-504 275.5,-510 275.5,-516 275.5,-516 275.5,-528 275.5,-528 275.5,-534 269.5,-540 263.5,-540"/>
<text text-anchor="middle" x="248.5" y="-519.5" font-family="sans" font-size="10.00">gc</text>
</g>
<!-- 3&#45;&gt;23 -->
<g id="edge52" class="edge">
<title>3&#45;&gt;23</title>
<path fill="none" stroke="grey" stroke-width="2" d="M603.07,-590.97C544.53,-586.16 403.42,-571.97 289.5,-540 288.06,-539.6 286.61,-539.16 285.15,-538.69"/>
<polygon fill="grey" stroke="grey" stroke-width="2" points="286.12,-535.32 275.53,-535.27 283.78,-541.92 286.12,-535.32"/>
</g>
<!-- 26 -->
<g id="node27" class="node">
<title>26</title>
<path fill="none" stroke="#59d856" stroke-width="2" d="M519.5,-252C519.5,-252 489.5,-252 489.5,-252 483.5,-252 477.5,-246 477.5,-240 477.5,-240 477.5,-228 477.5,-228 477.5,-222 483.5,-216 489.5,-216 489.5,-216 519.5,-216 519.5,-216 525.5,-216 531.5,-222 531.5,-228 531.5,-228 531.5,-240 531.5,-240 531.5,-246 525.5,-252 519.5,-252"/>
<text text-anchor="middle" x="504.5" y="-231.5" font-family="sans" font-size="10.00">bcfstats</text>
</g>
<!-- 3&#45;&gt;26 -->
<g id="edge55" class="edge">
<title>3&#45;&gt;26</title>
<path fill="none" stroke="grey" stroke-width="2" d="M603.24,-591.04C543.73,-585.05 403.91,-561.21 358.5,-468 319.1,-387.14 416.79,-299.09 471.11,-258.23"/>
<polygon fill="grey" stroke="grey" stroke-width="2" points="473.47,-260.85 479.43,-252.09 469.31,-255.22 473.47,-260.85"/>
</g>
<!-- 4 -->
<g id="node5" class="node">
<title>4</title>
<path fill="none" stroke="#56b9d8" stroke-width="2" d="M363,-684C363,-684 298,-684 298,-684 292,-684 286,-678 286,-672 286,-672 286,-660 286,-660 286,-654 292,-648 298,-648 298,-648 363,-648 363,-648 369,-648 375,-654 375,-660 375,-660 375,-672 375,-672 375,-678 369,-684 363,-684"/>
<text text-anchor="middle" x="330.5" y="-669" font-family="sans" font-size="10.00">mark_duplicates</text>
<text text-anchor="middle" x="330.5" y="-658" font-family="sans" font-size="10.00">sample: chr19</text>
</g>
<!-- 4&#45;&gt;3 -->
<g id="edge14" class="edge">
<title>4&#45;&gt;3</title>
<path fill="none" stroke="grey" stroke-width="2" d="M375.09,-654.6C434.28,-640.78 537.75,-616.64 593.08,-603.73"/>
<polygon fill="grey" stroke="grey" stroke-width="2" points="594.21,-607.06 603.16,-601.38 592.62,-600.24 594.21,-607.06"/>
</g>
<!-- 4&#45;&gt;20 -->
<g id="edge41" class="edge">
<title>4&#45;&gt;20</title>
<path fill="none" stroke="grey" stroke-width="2" d="M285.78,-657.07C221.2,-642.76 109.5,-606 109.5,-523 109.5,-523 109.5,-523 109.5,-305 109.5,-229.4 207.2,-189.21 262.48,-172.51"/>
<polygon fill="grey" stroke="grey" stroke-width="2" points="263.65,-175.82 272.28,-169.67 261.7,-169.1 263.65,-175.82"/>
</g>
<!-- 5&#45;&gt;0 -->
<g id="edge3" class="edge">
<title>5&#45;&gt;0</title>
<path fill="none" stroke="grey" stroke-width="2" d="M1102.66,-287.9C1111.93,-245.17 1129.27,-132.87 1072.5,-72 1038.71,-35.78 890.23,-24.03 819.81,-20.46"/>
<polygon fill="grey" stroke="grey" stroke-width="2" points="819.76,-16.95 809.61,-19.97 819.43,-23.94 819.76,-16.95"/>
</g>
<!-- 6 -->
<g id="node7" class="node">
<title>6</title>
<path fill="none" stroke="#5692d8" stroke-width="2" d="M574,-180C574,-180 519,-180 519,-180 513,-180 507,-174 507,-168 507,-168 507,-156 507,-156 507,-150 513,-144 519,-144 519,-144 574,-144 574,-144 580,-144 586,-150 586,-156 586,-156 586,-168 586,-168 586,-174 580,-180 574,-180"/>
<text text-anchor="middle" x="546.5" y="-159.5" font-family="sans" font-size="10.00">plot_coverage</text>
</g>
<!-- 6&#45;&gt;0 -->
<g id="edge4" class="edge">
<title>6&#45;&gt;0</title>
<path fill="none" stroke="grey" stroke-width="2" d="M545.15,-143.79C544.58,-123.81 546.9,-91.15 565.5,-72 590.18,-46.58 690.18,-30.45 745.41,-23.29"/>
<polygon fill="grey" stroke="grey" stroke-width="2" points="746.01,-26.75 755.5,-22.02 745.14,-19.8 746.01,-26.75"/>
</g>
<!-- 7&#45;&gt;6 -->
<g id="edge16" class="edge">
<title>7&#45;&gt;6</title>
<path fill="none" stroke="grey" stroke-width="2" d="M416.58,-215.88C441,-205.93 471.89,-193.36 497.43,-182.97"/>
<polygon fill="grey" stroke="grey" stroke-width="2" points="498.98,-186.12 506.92,-179.11 496.34,-179.63 498.98,-186.12"/>
</g>
<!-- 7&#45;&gt;20 -->
<g id="edge43" class="edge">
<title>7&#45;&gt;20</title>
<path fill="none" stroke="grey" stroke-width="2" d="M355.96,-215.7C346.7,-207.05 335.34,-196.45 325.24,-187.03"/>
<polygon fill="grey" stroke="grey" stroke-width="2" points="327.52,-184.37 317.83,-180.1 322.75,-189.49 327.52,-184.37"/>
</g>
<!-- 8 -->
<g id="node9" class="node">
<title>8</title>
<path fill="none" stroke="#a7d856" stroke-width="2" d="M615.5,-252C615.5,-252 561.5,-252 561.5,-252 555.5,-252 549.5,-246 549.5,-240 549.5,-240 549.5,-228 549.5,-228 549.5,-222 555.5,-216 561.5,-216 561.5,-216 615.5,-216 615.5,-216 621.5,-216 627.5,-222 627.5,-228 627.5,-228 627.5,-240 627.5,-240 627.5,-246 621.5,-252 615.5,-252"/>
<text text-anchor="middle" x="588.5" y="-231.5" font-family="sans" font-size="10.00">DeepT_target</text>
</g>
<!-- 8&#45;&gt;6 -->
<g id="edge17" class="edge">
<title>8&#45;&gt;6</title>
<path fill="none" stroke="grey" stroke-width="2" d="M578.12,-215.7C573.24,-207.56 567.31,-197.69 561.92,-188.7"/>
<polygon fill="grey" stroke="grey" stroke-width="2" points="564.91,-186.88 556.76,-180.1 558.91,-190.48 564.91,-186.88"/>
</g>
<!-- 8&#45;&gt;20 -->
<g id="edge44" class="edge">
<title>8&#45;&gt;20</title>
<path fill="none" stroke="grey" stroke-width="2" d="M549.34,-218.68C546.36,-217.73 543.39,-216.83 540.5,-216 469.12,-195.6 383.95,-178.53 336.37,-169.63"/>
<polygon fill="grey" stroke="grey" stroke-width="2" points="336.99,-166.19 326.52,-167.81 335.71,-173.07 336.99,-166.19"/>
</g>
<!-- 9&#45;&gt;8 -->
<g id="edge19" class="edge">
<title>9&#45;&gt;8</title>
<path fill="none" stroke="grey" stroke-width="2" d="M543.04,-503.92C534.85,-494.22 525.8,-481.37 521.5,-468 517.65,-456.03 516.36,-384.07 522.5,-360 531.92,-323.1 554.17,-285.01 570.23,-260.72"/>
<polygon fill="grey" stroke="grey" stroke-width="2" points="573.35,-262.37 576.05,-252.13 567.55,-258.45 573.35,-262.37"/>
</g>
<!-- 13 -->
<g id="node14" class="node">
<title>13</title>
<path fill="none" stroke="#ced856" stroke-width="2" d="M576.5,-468C576.5,-468 542.5,-468 542.5,-468 536.5,-468 530.5,-462 530.5,-456 530.5,-456 530.5,-444 530.5,-444 530.5,-438 536.5,-432 542.5,-432 542.5,-432 576.5,-432 576.5,-432 582.5,-432 588.5,-438 588.5,-444 588.5,-444 588.5,-456 588.5,-456 588.5,-462 582.5,-468 576.5,-468"/>
<text text-anchor="middle" x="559.5" y="-447.5" font-family="sans" font-size="10.00">target_gc</text>
</g>
<!-- 9&#45;&gt;13 -->
<g id="edge26" class="edge">
<title>9&#45;&gt;13</title>
<path fill="none" stroke="grey" stroke-width="2" d="M559.5,-503.7C559.5,-495.98 559.5,-486.71 559.5,-478.11"/>
<polygon fill="grey" stroke="grey" stroke-width="2" points="563,-478.1 559.5,-468.1 556,-478.1 563,-478.1"/>
</g>
<!-- 24 -->
<g id="node25" class="node">
<title>24</title>
<path fill="none" stroke="#d85656" stroke-width="2" d="M424,-468C424,-468 379,-468 379,-468 373,-468 367,-462 367,-456 367,-456 367,-444 367,-444 367,-438 373,-432 379,-432 379,-432 424,-432 424,-432 430,-432 436,-438 436,-444 436,-444 436,-456 436,-456 436,-462 430,-468 424,-468"/>
<text text-anchor="middle" x="401.5" y="-447.5" font-family="sans" font-size="10.00">GC_metrics</text>
</g>
<!-- 9&#45;&gt;24 -->
<g id="edge53" class="edge">
<title>9&#45;&gt;24</title>
<path fill="none" stroke="grey" stroke-width="2" d="M532.34,-508.97C508.4,-498.36 473.09,-482.72 445.18,-470.35"/>
<polygon fill="grey" stroke="grey" stroke-width="2" points="446.59,-467.15 436.03,-466.3 443.75,-473.55 446.59,-467.15"/>
</g>
<!-- 28 -->
<g id="node29" class="node">
<title>28</title>
<path fill="none" stroke="#d89556" stroke-width="2" d="M662,-468C662,-468 619,-468 619,-468 613,-468 607,-462 607,-456 607,-456 607,-444 607,-444 607,-438 613,-432 619,-432 619,-432 662,-432 662,-432 668,-432 674,-438 674,-444 674,-444 674,-456 674,-456 674,-462 668,-468 662,-468"/>
<text text-anchor="middle" x="640.5" y="-447.5" font-family="sans" font-size="10.00">oftarget_gc</text>
</g>
<!-- 9&#45;&gt;28 -->
<g id="edge61" class="edge">
<title>9&#45;&gt;28</title>
<path fill="none" stroke="grey" stroke-width="2" d="M579.52,-503.7C589.63,-494.97 602.04,-484.24 613.02,-474.75"/>
<polygon fill="grey" stroke="grey" stroke-width="2" points="615.43,-477.29 620.71,-468.1 610.85,-471.99 615.43,-477.29"/>
</g>
<!-- 10 -->
<g id="node11" class="node">
<title>10</title>
<path fill="none" stroke="#56d87b" stroke-width="2" d="M936.5,-108C936.5,-108 892.5,-108 892.5,-108 886.5,-108 880.5,-102 880.5,-96 880.5,-96 880.5,-84 880.5,-84 880.5,-78 886.5,-72 892.5,-72 892.5,-72 936.5,-72 936.5,-72 942.5,-72 948.5,-78 948.5,-84 948.5,-84 948.5,-96 948.5,-96 948.5,-102 942.5,-108 936.5,-108"/>
<text text-anchor="middle" x="914.5" y="-93" font-family="sans" font-size="10.00">var_metrics</text>
<text text-anchor="middle" x="914.5" y="-82" font-family="sans" font-size="10.00">caller: gatk</text>
</g>
<!-- 10&#45;&gt;0 -->
<g id="edge5" class="edge">
<title>10&#45;&gt;0</title>
<path fill="none" stroke="grey" stroke-width="2" d="M882.21,-71.88C862.97,-61.67 838.51,-48.7 818.62,-38.16"/>
<polygon fill="grey" stroke="grey" stroke-width="2" points="820.04,-34.94 809.56,-33.35 816.76,-41.13 820.04,-34.94"/>
</g>
<!-- 11&#45;&gt;10 -->
<g id="edge21" class="edge">
<title>11&#45;&gt;10</title>
<path fill="none" stroke="grey" stroke-width="2" d="M877.71,-287.85C884.64,-250.75 901.08,-162.81 909.43,-118.1"/>
<polygon fill="grey" stroke="grey" stroke-width="2" points="912.88,-118.71 911.28,-108.23 906,-117.42 912.88,-118.71"/>
</g>
<!-- 11&#45;&gt;16 -->
<g id="edge32" class="edge">
<title>11&#45;&gt;16</title>
<path fill="none" stroke="grey" stroke-width="2" d="M899.45,-287.88C912.54,-278.89 928.76,-267.76 942.94,-258.03"/>
<polygon fill="grey" stroke="grey" stroke-width="2" points="945.19,-260.73 951.45,-252.19 941.23,-254.96 945.19,-260.73"/>
</g>
<!-- 18 -->
<g id="node19" class="node">
<title>18</title>
<path fill="none" stroke="#56a9d8" stroke-width="2" d="M875.5,-180C875.5,-180 841.5,-180 841.5,-180 835.5,-180 829.5,-174 829.5,-168 829.5,-168 829.5,-156 829.5,-156 829.5,-150 835.5,-144 841.5,-144 841.5,-144 875.5,-144 875.5,-144 881.5,-144 887.5,-150 887.5,-156 887.5,-156 887.5,-168 887.5,-168 887.5,-174 881.5,-180 875.5,-180"/>
<text text-anchor="middle" x="858.5" y="-159.5" font-family="sans" font-size="10.00">specificty</text>
</g>
<!-- 11&#45;&gt;18 -->
<g id="edge36" class="edge">
<title>11&#45;&gt;18</title>
<path fill="none" stroke="grey" stroke-width="2" d="M872.57,-287.87C869.84,-263.67 864.83,-219.21 861.59,-190.39"/>
<polygon fill="grey" stroke="grey" stroke-width="2" points="865.03,-189.73 860.44,-180.19 858.08,-190.52 865.03,-189.73"/>
</g>
<!-- 11&#45;&gt;26 -->
<g id="edge57" class="edge">
<title>11&#45;&gt;26</title>
<path fill="none" stroke="grey" stroke-width="2" d="M847.07,-303.29C790.81,-299.22 658.52,-286.8 541.53,-251.83"/>
<polygon fill="grey" stroke="grey" stroke-width="2" points="542.28,-248.4 531.7,-248.82 540.24,-255.09 542.28,-248.4"/>
</g>
<!-- 12&#45;&gt;11 -->
<g id="edge23" class="edge">
<title>12&#45;&gt;11</title>
<path fill="none" stroke="grey" stroke-width="2" d="M836.86,-359.7C842.73,-351.47 849.87,-341.48 856.34,-332.42"/>
<polygon fill="grey" stroke="grey" stroke-width="2" points="859.32,-334.28 862.28,-324.1 853.62,-330.21 859.32,-334.28"/>
</g>
<!-- 12&#45;&gt;16 -->
<g id="edge31" class="edge">
<title>12&#45;&gt;16</title>
<path fill="none" stroke="grey" stroke-width="2" d="M851.89,-363.61C869.75,-354.08 892.93,-340.13 910.5,-324 930.72,-305.45 948.9,-279.93 961.03,-260.98"/>
<polygon fill="grey" stroke="grey" stroke-width="2" points="964.15,-262.59 966.49,-252.26 958.22,-258.88 964.15,-262.59"/>
</g>
<!-- 12&#45;&gt;17 -->
<g id="edge34" class="edge">
<title>12&#45;&gt;17</title>
<path fill="none" stroke="grey" stroke-width="2" d="M821.85,-359.87C818.1,-335.67 811.21,-291.21 806.74,-262.39"/>
<polygon fill="grey" stroke="grey" stroke-width="2" points="810.15,-261.54 805.16,-252.19 803.24,-262.61 810.15,-261.54"/>
</g>
<!-- 13&#45;&gt;12 -->
<g id="edge25" class="edge">
<title>13&#45;&gt;12</title>
<path fill="none" stroke="grey" stroke-width="2" d="M588.67,-435.61C591.95,-434.31 595.28,-433.07 598.5,-432 663.61,-410.37 742.07,-394.07 787.32,-385.58"/>
<polygon fill="grey" stroke="grey" stroke-width="2" points="788.08,-389 797.27,-383.74 786.8,-382.11 788.08,-389"/>
</g>
<!-- 13&#45;&gt;15 -->
<g id="edge29" class="edge">
<title>13&#45;&gt;15</title>
<path fill="none" stroke="grey" stroke-width="2" d="M588.7,-432.05C602.19,-422.9 617.43,-410.51 627.5,-396 640.38,-377.45 647.53,-352.71 651.38,-334.02"/>
<polygon fill="grey" stroke="grey" stroke-width="2" points="654.84,-334.55 653.24,-324.08 647.96,-333.26 654.84,-334.55"/>
</g>
<!-- 25 -->
<g id="node26" class="node">
<title>25</title>
<path fill="none" stroke="#567bd8" stroke-width="2" d="M606,-396C606,-396 543,-396 543,-396 537,-396 531,-390 531,-384 531,-384 531,-372 531,-372 531,-366 537,-360 543,-360 543,-360 606,-360 606,-360 612,-360 618,-366 618,-372 618,-372 618,-384 618,-384 618,-390 612,-396 606,-396"/>
<text text-anchor="middle" x="574.5" y="-375.5" font-family="sans" font-size="10.00">GCcorr_metrics</text>
</g>
<!-- 13&#45;&gt;25 -->
<g id="edge54" class="edge">
<title>13&#45;&gt;25</title>
<path fill="none" stroke="grey" stroke-width="2" d="M563.21,-431.7C564.86,-423.98 566.85,-414.71 568.69,-406.11"/>
<polygon fill="grey" stroke="grey" stroke-width="2" points="572.16,-406.62 570.83,-396.1 565.32,-405.15 572.16,-406.62"/>
</g>
<!-- 14 -->
<g id="node15" class="node">
<title>14</title>
<path fill="none" stroke="#56d87b" stroke-width="2" d="M648.5,-108C648.5,-108 586.5,-108 586.5,-108 580.5,-108 574.5,-102 574.5,-96 574.5,-96 574.5,-84 574.5,-84 574.5,-78 580.5,-72 586.5,-72 586.5,-72 648.5,-72 648.5,-72 654.5,-72 660.5,-78 660.5,-84 660.5,-84 660.5,-96 660.5,-96 660.5,-102 654.5,-108 648.5,-108"/>
<text text-anchor="middle" x="617.5" y="-93" font-family="sans" font-size="10.00">var_metrics</text>
<text text-anchor="middle" x="617.5" y="-82" font-family="sans" font-size="10.00">caller: samtools</text>
</g>
<!-- 14&#45;&gt;0 -->
<g id="edge6" class="edge">
<title>14&#45;&gt;0</title>
<path fill="none" stroke="grey" stroke-width="2" d="M657.86,-71.88C684.77,-60.46 719.84,-45.58 745.92,-34.52"/>
<polygon fill="grey" stroke="grey" stroke-width="2" points="747.61,-37.61 755.45,-30.48 744.87,-31.16 747.61,-37.61"/>
</g>
<!-- 15&#45;&gt;14 -->
<g id="edge27" class="edge">
<title>15&#45;&gt;14</title>
<path fill="none" stroke="grey" stroke-width="2" d="M652.45,-287.85C645.87,-250.75 630.25,-162.81 622.31,-118.1"/>
<polygon fill="grey" stroke="grey" stroke-width="2" points="625.75,-117.47 620.56,-108.23 618.86,-118.69 625.75,-117.47"/>
</g>
<!-- 15&#45;&gt;17 -->
<g id="edge35" class="edge">
<title>15&#45;&gt;17</title>
<path fill="none" stroke="grey" stroke-width="2" d="M682.81,-292C703.79,-282.01 733.22,-267.99 757.64,-256.36"/>
<polygon fill="grey" stroke="grey" stroke-width="2" points="759.21,-259.49 766.73,-252.03 756.2,-253.17 759.21,-259.49"/>
</g>
<!-- 19 -->
<g id="node20" class="node">
<title>19</title>
<path fill="none" stroke="#56a9d8" stroke-width="2" d="M711.5,-180C711.5,-180 677.5,-180 677.5,-180 671.5,-180 665.5,-174 665.5,-168 665.5,-168 665.5,-156 665.5,-156 665.5,-150 671.5,-144 677.5,-144 677.5,-144 711.5,-144 711.5,-144 717.5,-144 723.5,-150 723.5,-156 723.5,-156 723.5,-168 723.5,-168 723.5,-174 717.5,-180 711.5,-180"/>
<text text-anchor="middle" x="694.5" y="-159.5" font-family="sans" font-size="10.00">specificty</text>
</g>
<!-- 15&#45;&gt;19 -->
<g id="edge38" class="edge">
<title>15&#45;&gt;19</title>
<path fill="none" stroke="grey" stroke-width="2" d="M660.2,-287.87C666.88,-263.56 679.17,-218.82 687.08,-190.01"/>
<polygon fill="grey" stroke="grey" stroke-width="2" points="690.51,-190.76 689.78,-180.19 683.76,-188.91 690.51,-190.76"/>
</g>
<!-- 15&#45;&gt;26 -->
<g id="edge56" class="edge">
<title>15&#45;&gt;26</title>
<path fill="none" stroke="grey" stroke-width="2" d="M628.05,-292.44C606.64,-282.62 575.94,-268.5 541.06,-252.24"/>
<polygon fill="grey" stroke="grey" stroke-width="2" points="542.16,-248.89 531.61,-247.84 539.2,-255.24 542.16,-248.89"/>
</g>
<!-- 16&#45;&gt;0 -->
<g id="edge7" class="edge">
<title>16&#45;&gt;0</title>
<path fill="none" stroke="grey" stroke-width="2" d="M980.04,-215.61C985.53,-183.28 992.19,-113.43 957.5,-72 923.66,-31.59 860.1,-21.3 819.6,-19.06"/>
<polygon fill="grey" stroke="grey" stroke-width="2" points="819.72,-15.57 809.59,-18.65 819.43,-22.56 819.72,-15.57"/>
</g>
<!-- 16&#45;&gt;18 -->
<g id="edge37" class="edge">
<title>16&#45;&gt;18</title>
<path fill="none" stroke="grey" stroke-width="2" d="M947.63,-215.88C932.21,-206.72 913.02,-195.34 896.4,-185.48"/>
<polygon fill="grey" stroke="grey" stroke-width="2" points="897.86,-182.28 887.48,-180.19 894.29,-188.3 897.86,-182.28"/>
</g>
<!-- 17&#45;&gt;0 -->
<g id="edge8" class="edge">
<title>17&#45;&gt;0</title>
<path fill="none" stroke="grey" stroke-width="2" d="M802.86,-215.98C803.23,-186.49 802.94,-124.07 795.5,-72 794.27,-63.43 792.27,-54.22 790.19,-45.92"/>
<polygon fill="grey" stroke="grey" stroke-width="2" points="793.51,-44.8 787.58,-36.02 786.75,-46.58 793.51,-44.8"/>
</g>
<!-- 17&#45;&gt;19 -->
<g id="edge39" class="edge">
<title>17&#45;&gt;19</title>
<path fill="none" stroke="grey" stroke-width="2" d="M776.08,-215.88C762.09,-206.81 744.72,-195.55 729.61,-185.76"/>
<polygon fill="grey" stroke="grey" stroke-width="2" points="731.32,-182.69 721.02,-180.19 727.51,-188.57 731.32,-182.69"/>
</g>
<!-- 18&#45;&gt;0 -->
<g id="edge9" class="edge">
<title>18&#45;&gt;0</title>
<path fill="none" stroke="grey" stroke-width="2" d="M854.81,-143.77C850.36,-125.21 841.79,-95.21 828.5,-72 822.75,-61.96 814.94,-52.08 807.39,-43.62"/>
<polygon fill="grey" stroke="grey" stroke-width="2" points="809.96,-41.24 800.59,-36.28 804.82,-46 809.96,-41.24"/>
</g>
<!-- 27 -->
<g id="node28" class="node">
<title>27</title>
<path fill="none" stroke="#68d856" stroke-width="2" d="M774,-108C774,-108 729,-108 729,-108 723,-108 717,-102 717,-96 717,-96 717,-84 717,-84 717,-78 723,-72 729,-72 729,-72 774,-72 774,-72 780,-72 786,-78 786,-84 786,-84 786,-96 786,-96 786,-102 780,-108 774,-108"/>
<text text-anchor="middle" x="751.5" y="-87.5" font-family="sans" font-size="10.00">create_html</text>
</g>
<!-- 18&#45;&gt;27 -->
<g id="edge58" class="edge">
<title>18&#45;&gt;27</title>
<path fill="none" stroke="grey" stroke-width="2" d="M832.32,-143.88C818.46,-134.81 801.26,-123.55 786.29,-113.76"/>
<polygon fill="grey" stroke="grey" stroke-width="2" points="788.06,-110.74 777.78,-108.19 784.23,-116.59 788.06,-110.74"/>
</g>
<!-- 19&#45;&gt;0 -->
<g id="edge10" class="edge">
<title>19&#45;&gt;0</title>
<path fill="none" stroke="grey" stroke-width="2" d="M693.42,-143.93C693.03,-124.96 694.87,-94.1 708.5,-72 717.55,-57.33 732.33,-45.53 746.31,-36.83"/>
<polygon fill="grey" stroke="grey" stroke-width="2" points="748.45,-39.63 755.31,-31.56 744.91,-33.59 748.45,-39.63"/>
</g>
<!-- 19&#45;&gt;27 -->
<g id="edge59" class="edge">
<title>19&#45;&gt;27</title>
<path fill="none" stroke="grey" stroke-width="2" d="M708.59,-143.7C715.42,-135.3 723.76,-125.07 731.26,-115.86"/>
<polygon fill="grey" stroke="grey" stroke-width="2" points="733.97,-118.07 737.57,-108.1 728.54,-113.65 733.97,-118.07"/>
</g>
<!-- 20&#45;&gt;0 -->
<g id="edge11" class="edge">
<title>20&#45;&gt;0</title>
<path fill="none" stroke="grey" stroke-width="2" d="M326.55,-149.8C371.16,-131.64 463.21,-95.44 543.5,-72 613.86,-51.46 697.89,-34.54 745.23,-25.69"/>
<polygon fill="grey" stroke="grey" stroke-width="2" points="746.13,-29.08 755.33,-23.82 744.85,-22.2 746.13,-29.08"/>
</g>
<!-- 21&#45;&gt;20 -->
<g id="edge42" class="edge">
<title>21&#45;&gt;20</title>
<path fill="none" stroke="grey" stroke-width="2" d="M281.49,-359.97C280.03,-330.48 278.25,-268.05 285.5,-216 286.68,-207.52 288.76,-198.45 290.97,-190.25"/>
<polygon fill="grey" stroke="grey" stroke-width="2" points="294.38,-191.03 293.76,-180.45 287.65,-189.11 294.38,-191.03"/>
</g>
<!-- 22&#45;&gt;20 -->
<g id="edge45" class="edge">
<title>22&#45;&gt;20</title>
<path fill="none" stroke="grey" stroke-width="2" d="M171.49,-503.96C172.94,-477.31 175.5,-424.14 175.5,-379 175.5,-379 175.5,-379 175.5,-305 175.5,-250.91 227.17,-207.48 263.8,-183.49"/>
<polygon fill="grey" stroke="grey" stroke-width="2" points="265.72,-186.42 272.29,-178.1 261.97,-180.51 265.72,-186.42"/>
</g>
<!-- 23&#45;&gt;20 -->
<g id="edge46" class="edge">
<title>23&#45;&gt;20</title>
<path fill="none" stroke="grey" stroke-width="2" d="M243.44,-503.68C236.14,-477.11 223.5,-424.56 223.5,-379 223.5,-379 223.5,-379 223.5,-305 223.5,-259.64 254.02,-214.75 276.38,-187.95"/>
<polygon fill="grey" stroke="grey" stroke-width="2" points="279.14,-190.09 283.01,-180.23 273.84,-185.53 279.14,-190.09"/>
</g>
<!-- 24&#45;&gt;20 -->
<g id="edge47" class="edge">
<title>24&#45;&gt;20</title>
<path fill="none" stroke="grey" stroke-width="2" d="M393.23,-431.98C377.14,-398.31 341.27,-320.49 319.5,-252 313.03,-231.66 307.83,-208.06 304.36,-190.28"/>
<polygon fill="grey" stroke="grey" stroke-width="2" points="307.77,-189.47 302.47,-180.3 300.89,-190.77 307.77,-189.47"/>
</g>
<!-- 25&#45;&gt;20 -->
<g id="edge48" class="edge">
<title>25&#45;&gt;20</title>
<path fill="none" stroke="grey" stroke-width="2" d="M560.05,-359.99C526.69,-320.84 445.99,-226.89 430.5,-216 401.63,-195.7 363.85,-181.48 336.28,-172.92"/>
<polygon fill="grey" stroke="grey" stroke-width="2" points="337.21,-169.54 326.62,-170.02 335.19,-176.25 337.21,-169.54"/>
</g>
<!-- 26&#45;&gt;20 -->
<g id="edge49" class="edge">
<title>26&#45;&gt;20</title>
<path fill="none" stroke="grey" stroke-width="2" d="M477.27,-221.35C472.7,-219.5 467.98,-217.65 463.5,-216 420.37,-200.12 369.95,-184.21 336.52,-174.03"/>
<polygon fill="grey" stroke="grey" stroke-width="2" points="337.3,-170.61 326.72,-171.06 335.27,-177.31 337.3,-170.61"/>
</g>
<!-- 27&#45;&gt;0 -->
<g id="edge12" class="edge">
<title>27&#45;&gt;0</title>
<path fill="none" stroke="grey" stroke-width="2" d="M759.16,-71.7C762.69,-63.73 766.96,-54.1 770.87,-45.26"/>
<polygon fill="grey" stroke="grey" stroke-width="2" points="774.08,-46.67 774.93,-36.1 767.68,-43.83 774.08,-46.67"/>
</g>
<!-- 28&#45;&gt;27 -->
<g id="edge60" class="edge">
<title>28&#45;&gt;27</title>
<path fill="none" stroke="grey" stroke-width="2" d="M648.21,-431.84C658.77,-407.96 677.96,-363.21 691.5,-324 713.21,-261.1 716.43,-244.57 732.5,-180 737.62,-159.43 742.59,-135.98 746.16,-118.31"/>
<polygon fill="grey" stroke="grey" stroke-width="2" points="749.67,-118.63 748.2,-108.14 742.8,-117.26 749.67,-118.63"/>
</g>
</g>
</svg>
