<?xml version="1.0" encoding="UTF-8" standalone="no"?>
<!DOCTYPE svg PUBLIC "-//W3C//DTD SVG 1.1//EN"
 "http://www.w3.org/Graphics/SVG/1.1/DTD/svg11.dtd">
<!-- Generated by graphviz version 2.42.3 (20191010.1750)
 -->
<!-- Title: snakemake_dag Pages: 1 -->
<svg width="1077pt" height="620pt"
 viewBox="0.00 0.00 1076.60 620.00" xmlns="http://www.w3.org/2000/svg" xmlns:xlink="http://www.w3.org/1999/xlink">
<g id="graph0" class="graph" transform="scale(1 1) rotate(0) translate(4 616)">
<title>snakemake_dag</title>
<polygon fill="white" stroke="transparent" points="-4,4 -4,-616 1072.6,-616 1072.6,4 -4,4"/>
<!-- 0 -->
<g id="node1" class="node">
<title>0</title>
<path fill="none" stroke="#61d856" stroke-width="2" stroke-dasharray="5,2" d="M721.6,-36C721.6,-36 691.6,-36 691.6,-36 685.6,-36 679.6,-30 679.6,-24 679.6,-24 679.6,-12 679.6,-12 679.6,-6 685.6,0 691.6,0 691.6,0 721.6,0 721.6,0 727.6,0 733.6,-6 733.6,-12 733.6,-12 733.6,-24 733.6,-24 733.6,-30 727.6,-36 721.6,-36"/>
<text text-anchor="middle" x="706.6" y="-15.5" font-family="sans" font-size="10.00">all</text>
</g>
<!-- 1 -->
<g id="node2" class="node">
<title>1</title>
<path fill="none" stroke="#56d8c9" stroke-width="2" stroke-dasharray="5,2" d="M939.6,-468C939.6,-468 909.6,-468 909.6,-468 903.6,-468 897.6,-462 897.6,-456 897.6,-456 897.6,-444 897.6,-444 897.6,-438 903.6,-432 909.6,-432 909.6,-432 939.6,-432 939.6,-432 945.6,-432 951.6,-438 951.6,-444 951.6,-444 951.6,-456 951.6,-456 951.6,-462 945.6,-468 939.6,-468"/>
<text text-anchor="middle" x="924.6" y="-447.5" font-family="sans" font-size="10.00">interval</text>
</g>
<!-- 1&#45;&gt;0 -->
<g id="edge1" class="edge">
<title>1&#45;&gt;0</title>
<path fill="none" stroke="grey" stroke-width="2" d="M929.69,-431.89C946.3,-372.06 992.22,-170.6 889.6,-72 850,-33.95 784.78,-22.96 743.84,-19.94"/>
<polygon fill="grey" stroke="grey" stroke-width="2" points="743.93,-16.44 733.73,-19.32 743.5,-23.42 743.93,-16.44"/>
</g>
<!-- 2 -->
<g id="node3" class="node">
<title>2</title>
<path fill="none" stroke="#56d863" stroke-width="2" stroke-dasharray="5,2" d="M620.6,-540C620.6,-540 590.6,-540 590.6,-540 584.6,-540 578.6,-534 578.6,-528 578.6,-528 578.6,-516 578.6,-516 578.6,-510 584.6,-504 590.6,-504 590.6,-504 620.6,-504 620.6,-504 626.6,-504 632.6,-510 632.6,-516 632.6,-516 632.6,-528 632.6,-528 632.6,-534 626.6,-540 620.6,-540"/>
<text text-anchor="middle" x="605.6" y="-519.5" font-family="sans" font-size="10.00">fasta</text>
</g>
<!-- 2&#45;&gt;1 -->
<g id="edge8" class="edge">
<title>2&#45;&gt;1</title>
<path fill="none" stroke="grey" stroke-width="2" d="M632.8,-515.03C690.01,-502.48 822.84,-473.33 887.67,-459.1"/>
<polygon fill="grey" stroke="grey" stroke-width="2" points="888.46,-462.52 897.47,-456.95 886.96,-455.68 888.46,-462.52"/>
</g>
<!-- 4 -->
<g id="node5" class="node">
<title>4</title>
<path fill="none" stroke="#56b9d8" stroke-width="2" stroke-dasharray="5,2" d="M1028.1,-396C1028.1,-396 995.1,-396 995.1,-396 989.1,-396 983.1,-390 983.1,-384 983.1,-384 983.1,-372 983.1,-372 983.1,-366 989.1,-360 995.1,-360 995.1,-360 1028.1,-360 1028.1,-360 1034.1,-360 1040.1,-366 1040.1,-372 1040.1,-372 1040.1,-384 1040.1,-384 1040.1,-390 1034.1,-396 1028.1,-396"/>
<text text-anchor="middle" x="1011.6" y="-375.5" font-family="sans" font-size="10.00">all_depth</text>
</g>
<!-- 2&#45;&gt;4 -->
<g id="edge10" class="edge">
<title>2&#45;&gt;4</title>
<path fill="none" stroke="grey" stroke-width="2" d="M632.72,-519.96C706.18,-516.7 907.09,-504.56 960.6,-468 982.11,-453.31 995.69,-426.34 1003.38,-405.93"/>
<polygon fill="grey" stroke="grey" stroke-width="2" points="1006.78,-406.83 1006.79,-396.24 1000.17,-404.51 1006.78,-406.83"/>
</g>
<!-- 6 -->
<g id="node7" class="node">
<title>6</title>
<path fill="none" stroke="#afd856" stroke-width="2" stroke-dasharray="5,2" d="M784.1,-180C784.1,-180 715.1,-180 715.1,-180 709.1,-180 703.1,-174 703.1,-168 703.1,-168 703.1,-156 703.1,-156 703.1,-150 709.1,-144 715.1,-144 715.1,-144 784.1,-144 784.1,-144 790.1,-144 796.1,-150 796.1,-156 796.1,-156 796.1,-168 796.1,-168 796.1,-174 790.1,-180 784.1,-180"/>
<text text-anchor="middle" x="749.6" y="-159.5" font-family="sans" font-size="10.00">DeepT_coverage</text>
</g>
<!-- 2&#45;&gt;6 -->
<g id="edge13" class="edge">
<title>2&#45;&gt;6</title>
<path fill="none" stroke="grey" stroke-width="2" d="M615.76,-503.73C630.11,-477.64 654.6,-426.2 654.6,-379 654.6,-379 654.6,-379 654.6,-305 654.6,-257.01 692.55,-212.96 720.47,-187.04"/>
<polygon fill="grey" stroke="grey" stroke-width="2" points="722.96,-189.52 728.05,-180.22 718.27,-184.31 722.96,-189.52"/>
</g>
<!-- 8 -->
<g id="node9" class="node">
<title>8</title>
<path fill="none" stroke="#d88556" stroke-width="2" stroke-dasharray="5,2" d="M545.6,-468C545.6,-468 515.6,-468 515.6,-468 509.6,-468 503.6,-462 503.6,-456 503.6,-456 503.6,-444 503.6,-444 503.6,-438 509.6,-432 515.6,-432 515.6,-432 545.6,-432 545.6,-432 551.6,-432 557.6,-438 557.6,-444 557.6,-444 557.6,-456 557.6,-456 557.6,-462 551.6,-468 545.6,-468"/>
<text text-anchor="middle" x="530.6" y="-447.5" font-family="sans" font-size="10.00">intersect</text>
</g>
<!-- 2&#45;&gt;8 -->
<g id="edge15" class="edge">
<title>2&#45;&gt;8</title>
<path fill="none" stroke="grey" stroke-width="2" d="M587.06,-503.7C577.8,-495.05 566.44,-484.45 556.35,-475.03"/>
<polygon fill="grey" stroke="grey" stroke-width="2" points="558.63,-472.37 548.93,-468.1 553.85,-477.49 558.63,-472.37"/>
</g>
<!-- 10 -->
<g id="node11" class="node">
<title>10</title>
<path fill="none" stroke="#5673d8" stroke-width="2" stroke-dasharray="5,2" d="M779.6,-252C779.6,-252 749.6,-252 749.6,-252 743.6,-252 737.6,-246 737.6,-240 737.6,-240 737.6,-228 737.6,-228 737.6,-222 743.6,-216 749.6,-216 749.6,-216 779.6,-216 779.6,-216 785.6,-216 791.6,-222 791.6,-228 791.6,-228 791.6,-240 791.6,-240 791.6,-246 785.6,-252 779.6,-252"/>
<text text-anchor="middle" x="764.6" y="-231.5" font-family="sans" font-size="10.00">gatk_G</text>
</g>
<!-- 2&#45;&gt;10 -->
<g id="edge18" class="edge">
<title>2&#45;&gt;10</title>
<path fill="none" stroke="grey" stroke-width="2" d="M632.61,-509.79C651.15,-500.88 675.12,-486.79 690.6,-468 741.42,-406.3 757.52,-309.28 762.48,-262.3"/>
<polygon fill="grey" stroke="grey" stroke-width="2" points="765.97,-262.56 763.44,-252.27 759,-261.89 765.97,-262.56"/>
</g>
<!-- 11 -->
<g id="node12" class="node">
<title>11</title>
<path fill="none" stroke="#d8a456" stroke-width="2" stroke-dasharray="5,2" d="M724.6,-324C724.6,-324 694.6,-324 694.6,-324 688.6,-324 682.6,-318 682.6,-312 682.6,-312 682.6,-300 682.6,-300 682.6,-294 688.6,-288 694.6,-288 694.6,-288 724.6,-288 724.6,-288 730.6,-288 736.6,-294 736.6,-300 736.6,-300 736.6,-312 736.6,-312 736.6,-318 730.6,-324 724.6,-324"/>
<text text-anchor="middle" x="709.6" y="-303.5" font-family="sans" font-size="10.00">gatk_H</text>
</g>
<!-- 2&#45;&gt;11 -->
<g id="edge20" class="edge">
<title>2&#45;&gt;11</title>
<path fill="none" stroke="grey" stroke-width="2" d="M632.65,-504.09C645.31,-494.87 659.56,-482.41 668.6,-468 694.89,-426.11 704.35,-368.12 707.74,-334.38"/>
<polygon fill="grey" stroke="grey" stroke-width="2" points="711.23,-334.6 708.64,-324.33 704.26,-333.98 711.23,-334.6"/>
</g>
<!-- 13 -->
<g id="node14" class="node">
<title>13</title>
<path fill="none" stroke="#56d8a9" stroke-width="2" stroke-dasharray="5,2" d="M876.6,-180C876.6,-180 826.6,-180 826.6,-180 820.6,-180 814.6,-174 814.6,-168 814.6,-168 814.6,-156 814.6,-156 814.6,-150 820.6,-144 826.6,-144 826.6,-144 876.6,-144 876.6,-144 882.6,-144 888.6,-150 888.6,-156 888.6,-156 888.6,-168 888.6,-168 888.6,-174 882.6,-180 876.6,-180"/>
<text text-anchor="middle" x="851.6" y="-165" font-family="sans" font-size="10.00">concordance</text>
<text text-anchor="middle" x="851.6" y="-154" font-family="sans" font-size="10.00">caller: gatk</text>
</g>
<!-- 2&#45;&gt;13 -->
<g id="edge23" class="edge">
<title>2&#45;&gt;13</title>
<path fill="none" stroke="grey" stroke-width="2" d="M632.62,-516.89C692.2,-506.13 829.6,-471.32 829.6,-379 829.6,-379 829.6,-379 829.6,-305 829.6,-264.74 838.35,-218.81 844.81,-190.36"/>
<polygon fill="grey" stroke="grey" stroke-width="2" points="848.28,-190.89 847.15,-180.35 841.46,-189.29 848.28,-190.89"/>
</g>
<!-- 15 -->
<g id="node16" class="node">
<title>15</title>
<path fill="none" stroke="#568ad8" stroke-width="2" stroke-dasharray="5,2" d="M212.6,-324C212.6,-324 182.6,-324 182.6,-324 176.6,-324 170.6,-318 170.6,-312 170.6,-312 170.6,-300 170.6,-300 170.6,-294 176.6,-288 182.6,-288 182.6,-288 212.6,-288 212.6,-288 218.6,-288 224.6,-294 224.6,-300 224.6,-300 224.6,-312 224.6,-312 224.6,-318 218.6,-324 212.6,-324"/>
<text text-anchor="middle" x="197.6" y="-303.5" font-family="sans" font-size="10.00">mpileup</text>
</g>
<!-- 2&#45;&gt;15 -->
<g id="edge27" class="edge">
<title>2&#45;&gt;15</title>
<path fill="none" stroke="grey" stroke-width="2" d="M578.37,-520.85C502.09,-519.86 288.68,-513.04 238.6,-468 200.9,-434.09 195.64,-370.82 196.05,-334.51"/>
<polygon fill="grey" stroke="grey" stroke-width="2" points="199.56,-334.26 196.33,-324.17 192.56,-334.07 199.56,-334.26"/>
</g>
<!-- 16 -->
<g id="node17" class="node">
<title>16</title>
<path fill="none" stroke="#56d8a9" stroke-width="2" stroke-dasharray="5,2" d="M165.6,-252C165.6,-252 103.6,-252 103.6,-252 97.6,-252 91.6,-246 91.6,-240 91.6,-240 91.6,-228 91.6,-228 91.6,-222 97.6,-216 103.6,-216 103.6,-216 165.6,-216 165.6,-216 171.6,-216 177.6,-222 177.6,-228 177.6,-228 177.6,-240 177.6,-240 177.6,-246 171.6,-252 165.6,-252"/>
<text text-anchor="middle" x="134.6" y="-237" font-family="sans" font-size="10.00">concordance</text>
<text text-anchor="middle" x="134.6" y="-226" font-family="sans" font-size="10.00">caller: samtools</text>
</g>
<!-- 2&#45;&gt;16 -->
<g id="edge29" class="edge">
<title>2&#45;&gt;16</title>
<path fill="none" stroke="grey" stroke-width="2" d="M578.42,-520.99C498.44,-520.4 265.99,-514.64 209.6,-468 147.04,-416.26 136.09,-311.97 134.55,-262.39"/>
<polygon fill="grey" stroke="grey" stroke-width="2" points="138.05,-262.05 134.35,-252.13 131.05,-262.19 138.05,-262.05"/>
</g>
<!-- 18 -->
<g id="node19" class="node">
<title>18</title>
<path fill="none" stroke="#56a2d8" stroke-width="2" stroke-dasharray="5,2" d="M538.6,-180C538.6,-180 508.6,-180 508.6,-180 502.6,-180 496.6,-174 496.6,-168 496.6,-168 496.6,-156 496.6,-156 496.6,-150 502.6,-144 508.6,-144 508.6,-144 538.6,-144 538.6,-144 544.6,-144 550.6,-150 550.6,-156 550.6,-156 550.6,-168 550.6,-168 550.6,-174 544.6,-180 538.6,-180"/>
<text text-anchor="middle" x="523.6" y="-159.5" font-family="sans" font-size="10.00">stats</text>
</g>
<!-- 2&#45;&gt;18 -->
<g id="edge41" class="edge">
<title>2&#45;&gt;18</title>
<path fill="none" stroke="grey" stroke-width="2" d="M601.65,-503.73C588.44,-446.08 545.8,-259.89 529.77,-189.92"/>
<polygon fill="grey" stroke="grey" stroke-width="2" points="533.16,-189.06 527.52,-180.09 526.34,-190.62 533.16,-189.06"/>
</g>
<!-- 19 -->
<g id="node20" class="node">
<title>19</title>
<path fill="none" stroke="#c6d856" stroke-width="2" stroke-dasharray="5,2" d="M198.1,-180C198.1,-180 157.1,-180 157.1,-180 151.1,-180 145.1,-174 145.1,-168 145.1,-168 145.1,-156 145.1,-156 145.1,-150 151.1,-144 157.1,-144 157.1,-144 198.1,-144 198.1,-144 204.1,-144 210.1,-150 210.1,-156 210.1,-156 210.1,-168 210.1,-168 210.1,-174 204.1,-180 198.1,-180"/>
<text text-anchor="middle" x="177.6" y="-159.5" font-family="sans" font-size="10.00">hs_metrics</text>
</g>
<!-- 2&#45;&gt;19 -->
<g id="edge42" class="edge">
<title>2&#45;&gt;19</title>
<path fill="none" stroke="grey" stroke-width="2" d="M578.43,-520.85C528.05,-519.49 418.06,-511.33 338.6,-468 290.31,-441.67 252.6,-434.01 252.6,-379 252.6,-379 252.6,-379 252.6,-305 252.6,-259.77 222.49,-214.85 200.42,-188"/>
<polygon fill="grey" stroke="grey" stroke-width="2" points="203.01,-185.64 193.88,-180.27 197.67,-190.16 203.01,-185.64"/>
</g>
<!-- 20 -->
<g id="node21" class="node">
<title>20</title>
<path fill="none" stroke="#d86e56" stroke-width="2" stroke-dasharray="5,2" d="M270.6,-180C270.6,-180 240.6,-180 240.6,-180 234.6,-180 228.6,-174 228.6,-168 228.6,-168 228.6,-156 228.6,-156 228.6,-150 234.6,-144 240.6,-144 240.6,-144 270.6,-144 270.6,-144 276.6,-144 282.6,-150 282.6,-156 282.6,-156 282.6,-168 282.6,-168 282.6,-174 276.6,-180 270.6,-180"/>
<text text-anchor="middle" x="255.6" y="-159.5" font-family="sans" font-size="10.00">gc</text>
</g>
<!-- 2&#45;&gt;20 -->
<g id="edge43" class="edge">
<title>2&#45;&gt;20</title>
<path fill="none" stroke="grey" stroke-width="2" d="M578.48,-521.06C533.53,-519.85 442.6,-511.69 382.6,-468 345.2,-440.76 328.6,-425.27 328.6,-379 328.6,-379 328.6,-379 328.6,-305 328.6,-260.03 299.29,-215.04 277.81,-188.1"/>
<polygon fill="grey" stroke="grey" stroke-width="2" points="280.49,-185.85 271.44,-180.35 275.08,-190.29 280.49,-185.85"/>
</g>
<!-- 22 -->
<g id="node23" class="node">
<title>22</title>
<path fill="none" stroke="#97d856" stroke-width="2" stroke-dasharray="5,2" d="M380.6,-180C380.6,-180 350.6,-180 350.6,-180 344.6,-180 338.6,-174 338.6,-168 338.6,-168 338.6,-156 338.6,-156 338.6,-150 344.6,-144 350.6,-144 350.6,-144 380.6,-144 380.6,-144 386.6,-144 392.6,-150 392.6,-156 392.6,-156 392.6,-168 392.6,-168 392.6,-174 386.6,-180 380.6,-180"/>
<text text-anchor="middle" x="365.6" y="-159.5" font-family="sans" font-size="10.00">bcfstats</text>
</g>
<!-- 2&#45;&gt;22 -->
<g id="edge45" class="edge">
<title>2&#45;&gt;22</title>
<path fill="none" stroke="grey" stroke-width="2" d="M578.19,-517.72C515.41,-508.54 366.6,-476.49 366.6,-379 366.6,-379 366.6,-379 366.6,-305 366.6,-265 366.2,-218.65 365.91,-190.08"/>
<polygon fill="grey" stroke="grey" stroke-width="2" points="369.41,-190.01 365.8,-180.05 362.41,-190.09 369.41,-190.01"/>
</g>
<!-- 3 -->
<g id="node4" class="node">
<title>3</title>
<path fill="none" stroke="#56d0d8" stroke-width="2" stroke-dasharray="5,2" d="M638.1,-612C638.1,-612 573.1,-612 573.1,-612 567.1,-612 561.1,-606 561.1,-600 561.1,-600 561.1,-588 561.1,-588 561.1,-582 567.1,-576 573.1,-576 573.1,-576 638.1,-576 638.1,-576 644.1,-576 650.1,-582 650.1,-588 650.1,-588 650.1,-600 650.1,-600 650.1,-606 644.1,-612 638.1,-612"/>
<text text-anchor="middle" x="605.6" y="-597" font-family="sans" font-size="10.00">mark_duplicates</text>
<text text-anchor="middle" x="605.6" y="-586" font-family="sans" font-size="10.00">sample: chr19</text>
</g>
<!-- 3&#45;&gt;2 -->
<g id="edge9" class="edge">
<title>3&#45;&gt;2</title>
<path fill="none" stroke="grey" stroke-width="2" d="M605.6,-575.7C605.6,-567.98 605.6,-558.71 605.6,-550.11"/>
<polygon fill="grey" stroke="grey" stroke-width="2" points="609.1,-550.1 605.6,-540.1 602.1,-550.1 609.1,-550.1"/>
</g>
<!-- 17 -->
<g id="node18" class="node">
<title>17</title>
<path fill="none" stroke="#78d856" stroke-width="2" stroke-dasharray="5,2" d="M593.6,-108C593.6,-108 563.6,-108 563.6,-108 557.6,-108 551.6,-102 551.6,-96 551.6,-96 551.6,-84 551.6,-84 551.6,-78 557.6,-72 563.6,-72 563.6,-72 593.6,-72 593.6,-72 599.6,-72 605.6,-78 605.6,-84 605.6,-84 605.6,-96 605.6,-96 605.6,-102 599.6,-108 593.6,-108"/>
<text text-anchor="middle" x="578.6" y="-87.5" font-family="sans" font-size="10.00">multiqc</text>
</g>
<!-- 3&#45;&gt;17 -->
<g id="edge31" class="edge">
<title>3&#45;&gt;17</title>
<path fill="none" stroke="grey" stroke-width="2" d="M650.42,-588.91C766.61,-577.06 1068.6,-537.92 1068.6,-451 1068.6,-451 1068.6,-451 1068.6,-377 1068.6,-248.55 1007.54,-210.44 897.6,-144 805.67,-88.44 764.3,-127.17 658.6,-108 644.57,-105.46 629.24,-102.29 615.79,-99.39"/>
<polygon fill="grey" stroke="grey" stroke-width="2" points="616.44,-95.95 605.92,-97.23 614.94,-102.78 616.44,-95.95"/>
</g>
<!-- 23 -->
<g id="node24" class="node">
<title>23</title>
<path fill="none" stroke="#78d856" stroke-width="2" stroke-dasharray="5,2" d="M380.6,-108C380.6,-108 350.6,-108 350.6,-108 344.6,-108 338.6,-102 338.6,-96 338.6,-96 338.6,-84 338.6,-84 338.6,-78 344.6,-72 350.6,-72 350.6,-72 380.6,-72 380.6,-72 386.6,-72 392.6,-78 392.6,-84 392.6,-84 392.6,-96 392.6,-96 392.6,-102 386.6,-108 380.6,-108"/>
<text text-anchor="middle" x="365.6" y="-87.5" font-family="sans" font-size="10.00">multiqc</text>
</g>
<!-- 3&#45;&gt;23 -->
<g id="edge48" class="edge">
<title>3&#45;&gt;23</title>
<path fill="none" stroke="grey" stroke-width="2" d="M560.77,-592.04C421.03,-587.83 2.6,-565.68 2.6,-451 2.6,-451 2.6,-451 2.6,-233 2.6,-192.55 -7.81,-171.77 21.6,-144 65.28,-102.76 248.61,-93.61 328.32,-91.58"/>
<polygon fill="grey" stroke="grey" stroke-width="2" points="328.5,-95.08 338.41,-91.35 328.33,-88.08 328.5,-95.08"/>
</g>
<!-- 4&#45;&gt;0 -->
<g id="edge2" class="edge">
<title>4&#45;&gt;0</title>
<path fill="none" stroke="grey" stroke-width="2" d="M1015.45,-359.61C1021,-332.94 1030.6,-280.27 1030.6,-235 1030.6,-235 1030.6,-235 1030.6,-161 1030.6,-120.03 1036.83,-99.66 1006.6,-72 968.75,-37.36 815.93,-24.78 744.17,-20.72"/>
<polygon fill="grey" stroke="grey" stroke-width="2" points="743.96,-17.21 733.78,-20.16 743.58,-24.2 743.96,-17.21"/>
</g>
<!-- 5 -->
<g id="node6" class="node">
<title>5</title>
<path fill="none" stroke="#56d892" stroke-width="2" stroke-dasharray="5,2" d="M734.1,-108C734.1,-108 679.1,-108 679.1,-108 673.1,-108 667.1,-102 667.1,-96 667.1,-96 667.1,-84 667.1,-84 667.1,-78 673.1,-72 679.1,-72 679.1,-72 734.1,-72 734.1,-72 740.1,-72 746.1,-78 746.1,-84 746.1,-84 746.1,-96 746.1,-96 746.1,-102 740.1,-108 734.1,-108"/>
<text text-anchor="middle" x="706.6" y="-87.5" font-family="sans" font-size="10.00">plot_coverage</text>
</g>
<!-- 5&#45;&gt;0 -->
<g id="edge3" class="edge">
<title>5&#45;&gt;0</title>
<path fill="none" stroke="grey" stroke-width="2" d="M706.6,-71.7C706.6,-63.98 706.6,-54.71 706.6,-46.11"/>
<polygon fill="grey" stroke="grey" stroke-width="2" points="710.1,-46.1 706.6,-36.1 703.1,-46.1 710.1,-46.1"/>
</g>
<!-- 6&#45;&gt;5 -->
<g id="edge11" class="edge">
<title>6&#45;&gt;5</title>
<path fill="none" stroke="grey" stroke-width="2" d="M738.97,-143.7C733.97,-135.56 727.91,-125.69 722.39,-116.7"/>
<polygon fill="grey" stroke="grey" stroke-width="2" points="725.33,-114.79 717.11,-108.1 719.36,-118.46 725.33,-114.79"/>
</g>
<!-- 6&#45;&gt;17 -->
<g id="edge33" class="edge">
<title>6&#45;&gt;17</title>
<path fill="none" stroke="grey" stroke-width="2" d="M707.77,-143.88C679.42,-132.27 642.3,-117.08 615.13,-105.95"/>
<polygon fill="grey" stroke="grey" stroke-width="2" points="616.19,-102.61 605.61,-102.06 613.54,-109.08 616.19,-102.61"/>
</g>
<!-- 6&#45;&gt;23 -->
<g id="edge50" class="edge">
<title>6&#45;&gt;23</title>
<path fill="none" stroke="grey" stroke-width="2" d="M702.98,-146.33C699.82,-145.5 696.67,-144.71 693.6,-144 589.21,-119.84 463.62,-102.84 402.56,-95.32"/>
<polygon fill="grey" stroke="grey" stroke-width="2" points="402.98,-91.85 392.63,-94.12 402.13,-98.8 402.98,-91.85"/>
</g>
<!-- 7 -->
<g id="node8" class="node">
<title>7</title>
<path fill="none" stroke="#d85656" stroke-width="2" stroke-dasharray="5,2" d="M672.6,-180C672.6,-180 618.6,-180 618.6,-180 612.6,-180 606.6,-174 606.6,-168 606.6,-168 606.6,-156 606.6,-156 606.6,-150 612.6,-144 618.6,-144 618.6,-144 672.6,-144 672.6,-144 678.6,-144 684.6,-150 684.6,-156 684.6,-156 684.6,-168 684.6,-168 684.6,-174 678.6,-180 672.6,-180"/>
<text text-anchor="middle" x="645.6" y="-159.5" font-family="sans" font-size="10.00">DeepT_target</text>
</g>
<!-- 7&#45;&gt;5 -->
<g id="edge12" class="edge">
<title>7&#45;&gt;5</title>
<path fill="none" stroke="grey" stroke-width="2" d="M660.68,-143.7C667.99,-135.3 676.91,-125.07 684.94,-115.86"/>
<polygon fill="grey" stroke="grey" stroke-width="2" points="687.77,-117.94 691.7,-108.1 682.49,-113.34 687.77,-117.94"/>
</g>
<!-- 7&#45;&gt;17 -->
<g id="edge34" class="edge">
<title>7&#45;&gt;17</title>
<path fill="none" stroke="grey" stroke-width="2" d="M629.04,-143.7C620.93,-135.22 611.01,-124.86 602.13,-115.58"/>
<polygon fill="grey" stroke="grey" stroke-width="2" points="604.42,-112.91 594.97,-108.1 599.36,-117.75 604.42,-112.91"/>
</g>
<!-- 7&#45;&gt;23 -->
<g id="edge51" class="edge">
<title>7&#45;&gt;23</title>
<path fill="none" stroke="grey" stroke-width="2" d="M606.37,-151.19C552.33,-137.68 455.67,-113.52 402.75,-100.29"/>
<polygon fill="grey" stroke="grey" stroke-width="2" points="403.33,-96.82 392.78,-97.79 401.63,-103.61 403.33,-96.82"/>
</g>
<!-- 8&#45;&gt;7 -->
<g id="edge14" class="edge">
<title>8&#45;&gt;7</title>
<path fill="none" stroke="grey" stroke-width="2" d="M537.45,-431.97C556.7,-384.09 611.4,-248.06 634.78,-189.9"/>
<polygon fill="grey" stroke="grey" stroke-width="2" points="638.16,-190.89 638.64,-180.31 631.67,-188.28 638.16,-190.89"/>
</g>
<!-- 12 -->
<g id="node13" class="node">
<title>12</title>
<path fill="none" stroke="#56d87b" stroke-width="2" stroke-dasharray="5,2" d="M527.6,-396C527.6,-396 493.6,-396 493.6,-396 487.6,-396 481.6,-390 481.6,-384 481.6,-384 481.6,-372 481.6,-372 481.6,-366 487.6,-360 493.6,-360 493.6,-360 527.6,-360 527.6,-360 533.6,-360 539.6,-366 539.6,-372 539.6,-372 539.6,-384 539.6,-384 539.6,-390 533.6,-396 527.6,-396"/>
<text text-anchor="middle" x="510.6" y="-375.5" font-family="sans" font-size="10.00">target_gc</text>
</g>
<!-- 8&#45;&gt;12 -->
<g id="edge22" class="edge">
<title>8&#45;&gt;12</title>
<path fill="none" stroke="grey" stroke-width="2" d="M525.66,-431.7C523.43,-423.9 520.75,-414.51 518.27,-405.83"/>
<polygon fill="grey" stroke="grey" stroke-width="2" points="521.6,-404.76 515.49,-396.1 514.87,-406.68 521.6,-404.76"/>
</g>
<!-- 21 -->
<g id="node22" class="node">
<title>21</title>
<path fill="none" stroke="#d8d356" stroke-width="2" stroke-dasharray="5,2" d="M466.1,-180C466.1,-180 423.1,-180 423.1,-180 417.1,-180 411.1,-174 411.1,-168 411.1,-168 411.1,-156 411.1,-156 411.1,-150 417.1,-144 423.1,-144 423.1,-144 466.1,-144 466.1,-144 472.1,-144 478.1,-150 478.1,-156 478.1,-156 478.1,-168 478.1,-168 478.1,-174 472.1,-180 466.1,-180"/>
<text text-anchor="middle" x="444.6" y="-159.5" font-family="sans" font-size="10.00">oftarget_gc</text>
</g>
<!-- 8&#45;&gt;21 -->
<g id="edge44" class="edge">
<title>8&#45;&gt;21</title>
<path fill="none" stroke="grey" stroke-width="2" d="M504.63,-431.88C492.86,-422.69 479.96,-410.31 472.6,-396 437.92,-328.55 438.87,-236 441.97,-190.51"/>
<polygon fill="grey" stroke="grey" stroke-width="2" points="445.48,-190.5 442.76,-180.26 438.5,-189.96 445.48,-190.5"/>
</g>
<!-- 9 -->
<g id="node10" class="node">
<title>9</title>
<path fill="none" stroke="#d8bc56" stroke-width="2" stroke-dasharray="5,2" d="M868.6,-108C868.6,-108 834.6,-108 834.6,-108 828.6,-108 822.6,-102 822.6,-96 822.6,-96 822.6,-84 822.6,-84 822.6,-78 828.6,-72 834.6,-72 834.6,-72 868.6,-72 868.6,-72 874.6,-72 880.6,-78 880.6,-84 880.6,-84 880.6,-96 880.6,-96 880.6,-102 874.6,-108 868.6,-108"/>
<text text-anchor="middle" x="851.6" y="-87.5" font-family="sans" font-size="10.00">specificty</text>
</g>
<!-- 9&#45;&gt;0 -->
<g id="edge4" class="edge">
<title>9&#45;&gt;0</title>
<path fill="none" stroke="grey" stroke-width="2" d="M822.26,-74.83C799.47,-63.83 767.73,-48.51 743.26,-36.7"/>
<polygon fill="grey" stroke="grey" stroke-width="2" points="744.47,-33.39 733.94,-32.2 741.42,-39.7 744.47,-33.39"/>
</g>
<!-- 10&#45;&gt;9 -->
<g id="edge16" class="edge">
<title>10&#45;&gt;9</title>
<path fill="none" stroke="grey" stroke-width="2" d="M791.8,-230.88C823.32,-226.8 873.96,-214.87 897.6,-180 911.61,-159.34 895.46,-133.88 878.56,-115.49"/>
<polygon fill="grey" stroke="grey" stroke-width="2" points="880.84,-112.81 871.36,-108.07 875.82,-117.69 880.84,-112.81"/>
</g>
<!-- 10&#45;&gt;13 -->
<g id="edge24" class="edge">
<title>10&#45;&gt;13</title>
<path fill="none" stroke="grey" stroke-width="2" d="M786.11,-215.7C797.07,-206.88 810.55,-196.03 822.43,-186.47"/>
<polygon fill="grey" stroke="grey" stroke-width="2" points="824.75,-189.1 830.34,-180.1 820.36,-183.65 824.75,-189.1"/>
</g>
<!-- 10&#45;&gt;22 -->
<g id="edge47" class="edge">
<title>10&#45;&gt;22</title>
<path fill="none" stroke="grey" stroke-width="2" d="M737.24,-231.65C676.08,-228.08 524.1,-216 402.6,-180 402.5,-179.97 402.4,-179.94 402.3,-179.91"/>
<polygon fill="grey" stroke="grey" stroke-width="2" points="403.34,-176.57 392.74,-176.52 401,-183.16 403.34,-176.57"/>
</g>
<!-- 11&#45;&gt;10 -->
<g id="edge19" class="edge">
<title>11&#45;&gt;10</title>
<path fill="none" stroke="grey" stroke-width="2" d="M723.2,-287.7C729.73,-279.39 737.67,-269.28 744.85,-260.14"/>
<polygon fill="grey" stroke="grey" stroke-width="2" points="747.74,-262.13 751.16,-252.1 742.23,-257.81 747.74,-262.13"/>
</g>
<!-- 12&#45;&gt;11 -->
<g id="edge21" class="edge">
<title>12&#45;&gt;11</title>
<path fill="none" stroke="grey" stroke-width="2" d="M539.97,-366.67C575.2,-354.28 634.3,-333.49 672.62,-320.01"/>
<polygon fill="grey" stroke="grey" stroke-width="2" points="674.09,-323.2 682.36,-316.58 671.76,-316.6 674.09,-323.2"/>
</g>
<!-- 12&#45;&gt;15 -->
<g id="edge28" class="edge">
<title>12&#45;&gt;15</title>
<path fill="none" stroke="grey" stroke-width="2" d="M481.44,-370.48C424.36,-357.71 298.01,-329.45 234.93,-315.35"/>
<polygon fill="grey" stroke="grey" stroke-width="2" points="235.53,-311.9 225.01,-313.13 234,-318.73 235.53,-311.9"/>
</g>
<!-- 12&#45;&gt;17 -->
<g id="edge37" class="edge">
<title>12&#45;&gt;17</title>
<path fill="none" stroke="grey" stroke-width="2" d="M515.06,-359.92C523.9,-325.81 544.17,-246.79 559.6,-180 564.37,-159.35 569.36,-135.9 573.03,-118.26"/>
<polygon fill="grey" stroke="grey" stroke-width="2" points="576.53,-118.6 575.13,-108.1 569.68,-117.18 576.53,-118.6"/>
</g>
<!-- 12&#45;&gt;23 -->
<g id="edge54" class="edge">
<title>12&#45;&gt;23</title>
<path fill="none" stroke="grey" stroke-width="2" d="M485.78,-359.91C444.06,-329.47 361.3,-261.36 329.6,-180 323.79,-165.09 324.9,-159.29 329.6,-144 332.61,-134.22 338.11,-124.62 343.92,-116.33"/>
<polygon fill="grey" stroke="grey" stroke-width="2" points="346.8,-118.33 349.99,-108.23 341.2,-114.13 346.8,-118.33"/>
</g>
<!-- 13&#45;&gt;9 -->
<g id="edge17" class="edge">
<title>13&#45;&gt;9</title>
<path fill="none" stroke="grey" stroke-width="2" d="M851.6,-143.7C851.6,-135.98 851.6,-126.71 851.6,-118.11"/>
<polygon fill="grey" stroke="grey" stroke-width="2" points="855.1,-118.1 851.6,-108.1 848.1,-118.1 855.1,-118.1"/>
</g>
<!-- 13&#45;&gt;17 -->
<g id="edge40" class="edge">
<title>13&#45;&gt;17</title>
<path fill="none" stroke="grey" stroke-width="2" d="M814.58,-146.87C811.56,-145.85 808.54,-144.88 805.6,-144 770.37,-133.42 670.71,-111.14 615.89,-99.11"/>
<polygon fill="grey" stroke="grey" stroke-width="2" points="616.4,-95.64 605.88,-96.92 614.9,-102.48 616.4,-95.64"/>
</g>
<!-- 14 -->
<g id="node15" class="node">
<title>14</title>
<path fill="none" stroke="#d8bc56" stroke-width="2" stroke-dasharray="5,2" d="M76.6,-180C76.6,-180 42.6,-180 42.6,-180 36.6,-180 30.6,-174 30.6,-168 30.6,-168 30.6,-156 30.6,-156 30.6,-150 36.6,-144 42.6,-144 42.6,-144 76.6,-144 76.6,-144 82.6,-144 88.6,-150 88.6,-156 88.6,-156 88.6,-168 88.6,-168 88.6,-174 82.6,-180 76.6,-180"/>
<text text-anchor="middle" x="59.6" y="-159.5" font-family="sans" font-size="10.00">specificty</text>
</g>
<!-- 14&#45;&gt;0 -->
<g id="edge5" class="edge">
<title>14&#45;&gt;0</title>
<path fill="none" stroke="grey" stroke-width="2" d="M88.68,-149.5C137.63,-130.58 239.96,-92.9 329.6,-72 452.11,-43.44 600.83,-28.05 669.08,-22.04"/>
<polygon fill="grey" stroke="grey" stroke-width="2" points="669.66,-25.5 679.33,-21.15 669.06,-18.52 669.66,-25.5"/>
</g>
<!-- 15&#45;&gt;14 -->
<g id="edge25" class="edge">
<title>15&#45;&gt;14</title>
<path fill="none" stroke="grey" stroke-width="2" d="M170.23,-299.49C143.95,-292.77 105.01,-278.83 82.6,-252 68.17,-234.72 62.66,-209.45 60.62,-190.25"/>
<polygon fill="grey" stroke="grey" stroke-width="2" points="64.09,-189.71 59.79,-180.03 57.11,-190.27 64.09,-189.71"/>
</g>
<!-- 15&#45;&gt;16 -->
<g id="edge30" class="edge">
<title>15&#45;&gt;16</title>
<path fill="none" stroke="grey" stroke-width="2" d="M182.03,-287.7C174.4,-279.22 165.08,-268.86 156.73,-259.58"/>
<polygon fill="grey" stroke="grey" stroke-width="2" points="159.29,-257.2 150,-252.1 154.08,-261.88 159.29,-257.2"/>
</g>
<!-- 15&#45;&gt;22 -->
<g id="edge46" class="edge">
<title>15&#45;&gt;22</title>
<path fill="none" stroke="grey" stroke-width="2" d="M217.87,-287.87C247.76,-262.6 303.78,-215.25 337.59,-186.68"/>
<polygon fill="grey" stroke="grey" stroke-width="2" points="339.89,-189.32 345.27,-180.19 335.37,-183.97 339.89,-189.32"/>
</g>
<!-- 16&#45;&gt;14 -->
<g id="edge26" class="edge">
<title>16&#45;&gt;14</title>
<path fill="none" stroke="grey" stroke-width="2" d="M116.06,-215.7C106.8,-207.05 95.44,-196.45 85.35,-187.03"/>
<polygon fill="grey" stroke="grey" stroke-width="2" points="87.63,-184.37 77.93,-180.1 82.85,-189.49 87.63,-184.37"/>
</g>
<!-- 16&#45;&gt;23 -->
<g id="edge57" class="edge">
<title>16&#45;&gt;23</title>
<path fill="none" stroke="grey" stroke-width="2" d="M129.11,-215.85C123.98,-196.23 119.32,-164.22 135.6,-144 159.42,-114.42 269.34,-99.89 328.18,-94.12"/>
<polygon fill="grey" stroke="grey" stroke-width="2" points="328.57,-97.6 338.2,-93.18 327.91,-90.63 328.57,-97.6"/>
</g>
<!-- 17&#45;&gt;0 -->
<g id="edge6" class="edge">
<title>17&#45;&gt;0</title>
<path fill="none" stroke="grey" stroke-width="2" d="M605.75,-74.15C624.67,-63.81 650.11,-49.89 670.71,-38.63"/>
<polygon fill="grey" stroke="grey" stroke-width="2" points="672.4,-41.69 679.5,-33.82 669.04,-35.55 672.4,-41.69"/>
</g>
<!-- 18&#45;&gt;17 -->
<g id="edge32" class="edge">
<title>18&#45;&gt;17</title>
<path fill="none" stroke="grey" stroke-width="2" d="M537.2,-143.7C543.73,-135.39 551.67,-125.28 558.85,-116.14"/>
<polygon fill="grey" stroke="grey" stroke-width="2" points="561.74,-118.13 565.16,-108.1 556.23,-113.81 561.74,-118.13"/>
</g>
<!-- 18&#45;&gt;23 -->
<g id="edge49" class="edge">
<title>18&#45;&gt;23</title>
<path fill="none" stroke="grey" stroke-width="2" d="M496.52,-148.1C493.52,-146.7 490.5,-145.31 487.6,-144 459.01,-131.04 426.38,-116.9 402.06,-106.48"/>
<polygon fill="grey" stroke="grey" stroke-width="2" points="403.42,-103.26 392.85,-102.55 400.66,-109.69 403.42,-103.26"/>
</g>
<!-- 19&#45;&gt;17 -->
<g id="edge35" class="edge">
<title>19&#45;&gt;17</title>
<path fill="none" stroke="grey" stroke-width="2" d="M210.36,-146.88C213.45,-145.81 216.57,-144.83 219.6,-144 334.49,-112.75 475.39,-98.76 541.29,-93.57"/>
<polygon fill="grey" stroke="grey" stroke-width="2" points="541.88,-97.04 551.58,-92.78 541.35,-90.06 541.88,-97.04"/>
</g>
<!-- 19&#45;&gt;23 -->
<g id="edge52" class="edge">
<title>19&#45;&gt;23</title>
<path fill="none" stroke="grey" stroke-width="2" d="M210.12,-147.7C213.32,-146.44 216.52,-145.18 219.6,-144 256.7,-129.77 299.46,-114.36 329.07,-103.85"/>
<polygon fill="grey" stroke="grey" stroke-width="2" points="330.33,-107.11 338.58,-100.48 327.99,-100.52 330.33,-107.11"/>
</g>
<!-- 20&#45;&gt;17 -->
<g id="edge36" class="edge">
<title>20&#45;&gt;17</title>
<path fill="none" stroke="grey" stroke-width="2" d="M282.64,-154.68C296.65,-151.43 314.03,-147.45 329.6,-144 404.58,-127.41 492.49,-108.92 541.23,-98.76"/>
<polygon fill="grey" stroke="grey" stroke-width="2" points="542.23,-102.13 551.31,-96.66 540.8,-95.27 542.23,-102.13"/>
</g>
<!-- 20&#45;&gt;23 -->
<g id="edge53" class="edge">
<title>20&#45;&gt;23</title>
<path fill="none" stroke="grey" stroke-width="2" d="M282.51,-143.88C296.76,-134.81 314.45,-123.55 329.84,-113.76"/>
<polygon fill="grey" stroke="grey" stroke-width="2" points="332.03,-116.51 338.59,-108.19 328.27,-110.61 332.03,-116.51"/>
</g>
<!-- 21&#45;&gt;17 -->
<g id="edge38" class="edge">
<title>21&#45;&gt;17</title>
<path fill="none" stroke="grey" stroke-width="2" d="M477.38,-143.88C497.14,-133.56 522.32,-120.4 542.62,-109.8"/>
<polygon fill="grey" stroke="grey" stroke-width="2" points="544.32,-112.86 551.57,-105.12 541.08,-106.65 544.32,-112.86"/>
</g>
<!-- 21&#45;&gt;23 -->
<g id="edge55" class="edge">
<title>21&#45;&gt;23</title>
<path fill="none" stroke="grey" stroke-width="2" d="M425.07,-143.7C415.22,-134.97 403.12,-124.24 392.41,-114.75"/>
<polygon fill="grey" stroke="grey" stroke-width="2" points="394.71,-112.12 384.91,-108.1 390.07,-117.36 394.71,-112.12"/>
</g>
<!-- 22&#45;&gt;17 -->
<g id="edge39" class="edge">
<title>22&#45;&gt;17</title>
<path fill="none" stroke="grey" stroke-width="2" d="M392.9,-147.95C396.14,-146.55 399.43,-145.2 402.6,-144 449.6,-126.22 505.37,-110.27 541.33,-100.61"/>
<polygon fill="grey" stroke="grey" stroke-width="2" points="542.61,-103.89 551.38,-97.94 540.82,-97.13 542.61,-103.89"/>
</g>
<!-- 22&#45;&gt;23 -->
<g id="edge56" class="edge">
<title>22&#45;&gt;23</title>
<path fill="none" stroke="grey" stroke-width="2" d="M365.6,-143.7C365.6,-135.98 365.6,-126.71 365.6,-118.11"/>
<polygon fill="grey" stroke="grey" stroke-width="2" points="369.1,-118.1 365.6,-108.1 362.1,-118.1 369.1,-118.1"/>
</g>
<!-- 23&#45;&gt;0 -->
<g id="edge7" class="edge">
<title>23&#45;&gt;0</title>
<path fill="none" stroke="grey" stroke-width="2" d="M392.65,-83.45C453.33,-70.99 600.43,-40.8 669.55,-26.61"/>
<polygon fill="grey" stroke="grey" stroke-width="2" points="670.47,-29.99 679.56,-24.55 669.06,-23.13 670.47,-29.99"/>
</g>
</g>
</svg>
