<?xml version="1.0" encoding="UTF-8" standalone="no"?>
<!DOCTYPE svg PUBLIC "-//W3C//DTD SVG 1.1//EN"
 "http://www.w3.org/Graphics/SVG/1.1/DTD/svg11.dtd">
<!-- Generated by graphviz version 2.42.3 (20191010.1750)
 -->
<!-- Title: snakemake_dag Pages: 1 -->
<svg width="892pt" height="620pt"
 viewBox="0.00 0.00 891.50 620.00" xmlns="http://www.w3.org/2000/svg" xmlns:xlink="http://www.w3.org/1999/xlink">
<g id="graph0" class="graph" transform="scale(1 1) rotate(0) translate(4 616)">
<title>snakemake_dag</title>
<polygon fill="white" stroke="transparent" points="-4,4 -4,-616 887.5,-616 887.5,4 -4,4"/>
<!-- 0 -->
<g id="node1" class="node">
<title>0</title>
<path fill="none" stroke="#5673d8" stroke-width="2" d="M699,-36C699,-36 669,-36 669,-36 663,-36 657,-30 657,-24 657,-24 657,-12 657,-12 657,-6 663,0 669,0 669,0 699,0 699,0 705,0 711,-6 711,-12 711,-12 711,-24 711,-24 711,-30 705,-36 699,-36"/>
<text text-anchor="middle" x="684" y="-15.5" font-family="sans" font-size="10.00">all</text>
</g>
<!-- 1 -->
<g id="node2" class="node">
<title>1</title>
<path fill="none" stroke="#d8bc56" stroke-width="2" d="M800,-468C800,-468 770,-468 770,-468 764,-468 758,-462 758,-456 758,-456 758,-444 758,-444 758,-438 764,-432 770,-432 770,-432 800,-432 800,-432 806,-432 812,-438 812,-444 812,-444 812,-456 812,-456 812,-462 806,-468 800,-468"/>
<text text-anchor="middle" x="785" y="-447.5" font-family="sans" font-size="10.00">interval</text>
</g>
<!-- 1&#45;&gt;0 -->
<g id="edge1" class="edge">
<title>1&#45;&gt;0</title>
<path fill="none" stroke="grey" stroke-width="2" d="M787.57,-432C791.36,-405.4 798,-352.3 798,-307 798,-307 798,-307 798,-161 798,-110 752.73,-66.88 719.24,-41.97"/>
<polygon fill="grey" stroke="grey" stroke-width="2" points="721.17,-39.05 711.02,-36.04 717.08,-44.73 721.17,-39.05"/>
</g>
<!-- 2 -->
<g id="node3" class="node">
<title>2</title>
<path fill="none" stroke="#97d856" stroke-width="2" d="M467,-540C467,-540 437,-540 437,-540 431,-540 425,-534 425,-528 425,-528 425,-516 425,-516 425,-510 431,-504 437,-504 437,-504 467,-504 467,-504 473,-504 479,-510 479,-516 479,-516 479,-528 479,-528 479,-534 473,-540 467,-540"/>
<text text-anchor="middle" x="452" y="-519.5" font-family="sans" font-size="10.00">fasta</text>
</g>
<!-- 2&#45;&gt;1 -->
<g id="edge9" class="edge">
<title>2&#45;&gt;1</title>
<path fill="none" stroke="grey" stroke-width="2" d="M479.18,-516.44C528.3,-508.04 635.04,-489.03 724,-468 731.82,-466.15 740.15,-463.97 748.07,-461.8"/>
<polygon fill="grey" stroke="grey" stroke-width="2" points="749.1,-465.14 757.79,-459.08 747.22,-458.4 749.1,-465.14"/>
</g>
<!-- 4 -->
<g id="node5" class="node">
<title>4</title>
<path fill="none" stroke="#56d8c9" stroke-width="2" d="M871.5,-396C871.5,-396 838.5,-396 838.5,-396 832.5,-396 826.5,-390 826.5,-384 826.5,-384 826.5,-372 826.5,-372 826.5,-366 832.5,-360 838.5,-360 838.5,-360 871.5,-360 871.5,-360 877.5,-360 883.5,-366 883.5,-372 883.5,-372 883.5,-384 883.5,-384 883.5,-390 877.5,-396 871.5,-396"/>
<text text-anchor="middle" x="855" y="-375.5" font-family="sans" font-size="10.00">all_depth</text>
</g>
<!-- 2&#45;&gt;4 -->
<g id="edge11" class="edge">
<title>2&#45;&gt;4</title>
<path fill="none" stroke="grey" stroke-width="2" d="M479.13,-520.57C555.15,-518.85 768.1,-510.28 821,-468 839.81,-452.96 848.23,-426.24 851.98,-405.98"/>
<polygon fill="grey" stroke="grey" stroke-width="2" points="855.44,-406.5 853.55,-396.08 848.53,-405.41 855.44,-406.5"/>
</g>
<!-- 6 -->
<g id="node7" class="node">
<title>6</title>
<path fill="none" stroke="#56d8a9" stroke-width="2" d="M441.5,-180C441.5,-180 372.5,-180 372.5,-180 366.5,-180 360.5,-174 360.5,-168 360.5,-168 360.5,-156 360.5,-156 360.5,-150 366.5,-144 372.5,-144 372.5,-144 441.5,-144 441.5,-144 447.5,-144 453.5,-150 453.5,-156 453.5,-156 453.5,-168 453.5,-168 453.5,-174 447.5,-180 441.5,-180"/>
<text text-anchor="middle" x="407" y="-159.5" font-family="sans" font-size="10.00">DeepT_coverage</text>
</g>
<!-- 2&#45;&gt;6 -->
<g id="edge14" class="edge">
<title>2&#45;&gt;6</title>
<path fill="none" stroke="grey" stroke-width="2" d="M424.93,-508.72C408.98,-499.88 390.17,-486.29 381,-468 334.13,-374.53 374.67,-244.57 395.94,-189.43"/>
<polygon fill="grey" stroke="grey" stroke-width="2" points="399.23,-190.61 399.66,-180.03 392.72,-188.04 399.23,-190.61"/>
</g>
<!-- 8 -->
<g id="node9" class="node">
<title>8</title>
<path fill="none" stroke="#56d892" stroke-width="2" d="M307,-468C307,-468 277,-468 277,-468 271,-468 265,-462 265,-456 265,-456 265,-444 265,-444 265,-438 271,-432 277,-432 277,-432 307,-432 307,-432 313,-432 319,-438 319,-444 319,-444 319,-456 319,-456 319,-462 313,-468 307,-468"/>
<text text-anchor="middle" x="292" y="-447.5" font-family="sans" font-size="10.00">intersect</text>
</g>
<!-- 2&#45;&gt;8 -->
<g id="edge16" class="edge">
<title>2&#45;&gt;8</title>
<path fill="none" stroke="grey" stroke-width="2" d="M424.86,-509.13C398.34,-497.53 357.81,-479.79 328.49,-466.96"/>
<polygon fill="grey" stroke="grey" stroke-width="2" points="329.57,-463.62 319.01,-462.82 326.77,-470.03 329.57,-463.62"/>
</g>
<!-- 10 -->
<g id="node11" class="node">
<title>10</title>
<path fill="none" stroke="#afd856" stroke-width="2" d="M539,-252C539,-252 509,-252 509,-252 503,-252 497,-246 497,-240 497,-240 497,-228 497,-228 497,-222 503,-216 509,-216 509,-216 539,-216 539,-216 545,-216 551,-222 551,-228 551,-228 551,-240 551,-240 551,-246 545,-252 539,-252"/>
<text text-anchor="middle" x="524" y="-231.5" font-family="sans" font-size="10.00">gatk_G</text>
</g>
<!-- 2&#45;&gt;10 -->
<g id="edge19" class="edge">
<title>2&#45;&gt;10</title>
<path fill="none" stroke="grey" stroke-width="2" d="M467.25,-503.97C475.37,-494.09 484.92,-481.05 491,-468 525.45,-394.14 527.54,-369.48 526,-288 525.84,-279.68 525.55,-270.63 525.23,-262.4"/>
<polygon fill="grey" stroke="grey" stroke-width="2" points="528.72,-262.03 524.81,-252.18 521.72,-262.32 528.72,-262.03"/>
</g>
<!-- 11 -->
<g id="node12" class="node">
<title>11</title>
<path fill="none" stroke="#56d863" stroke-width="2" d="M505,-324C505,-324 475,-324 475,-324 469,-324 463,-318 463,-312 463,-312 463,-300 463,-300 463,-294 469,-288 475,-288 475,-288 505,-288 505,-288 511,-288 517,-294 517,-300 517,-300 517,-312 517,-312 517,-318 511,-324 505,-324"/>
<text text-anchor="middle" x="490" y="-303.5" font-family="sans" font-size="10.00">gatk_H</text>
</g>
<!-- 2&#45;&gt;11 -->
<g id="edge21" class="edge">
<title>2&#45;&gt;11</title>
<path fill="none" stroke="grey" stroke-width="2" d="M458.94,-503.98C468.19,-480.26 484.1,-435.71 490,-396 493.05,-375.5 492.9,-352.04 492.07,-334.36"/>
<polygon fill="grey" stroke="grey" stroke-width="2" points="495.55,-333.96 491.49,-324.17 488.57,-334.36 495.55,-333.96"/>
</g>
<!-- 13 -->
<g id="node14" class="node">
<title>13</title>
<path fill="none" stroke="#d8d356" stroke-width="2" d="M644,-180C644,-180 594,-180 594,-180 588,-180 582,-174 582,-168 582,-168 582,-156 582,-156 582,-150 588,-144 594,-144 594,-144 644,-144 644,-144 650,-144 656,-150 656,-156 656,-156 656,-168 656,-168 656,-174 650,-180 644,-180"/>
<text text-anchor="middle" x="619" y="-165" font-family="sans" font-size="10.00">concordance</text>
<text text-anchor="middle" x="619" y="-154" font-family="sans" font-size="10.00">caller: gatk</text>
</g>
<!-- 2&#45;&gt;13 -->
<g id="edge24" class="edge">
<title>2&#45;&gt;13</title>
<path fill="none" stroke="grey" stroke-width="2" d="M479.38,-515.35C534.79,-502.14 655,-463.73 655,-379 655,-379 655,-379 655,-305 655,-263.78 640.57,-217.83 629.98,-189.66"/>
<polygon fill="grey" stroke="grey" stroke-width="2" points="633.16,-188.19 626.29,-180.13 626.64,-190.72 633.16,-188.19"/>
</g>
<!-- 15 -->
<g id="node16" class="node">
<title>15</title>
<path fill="none" stroke="#c6d856" stroke-width="2" d="M615,-324C615,-324 585,-324 585,-324 579,-324 573,-318 573,-312 573,-312 573,-300 573,-300 573,-294 579,-288 585,-288 585,-288 615,-288 615,-288 621,-288 627,-294 627,-300 627,-300 627,-312 627,-312 627,-318 621,-324 615,-324"/>
<text text-anchor="middle" x="600" y="-303.5" font-family="sans" font-size="10.00">mpileup</text>
</g>
<!-- 2&#45;&gt;15 -->
<g id="edge28" class="edge">
<title>2&#45;&gt;15</title>
<path fill="none" stroke="grey" stroke-width="2" d="M479.48,-514.76C504.44,-507.65 540.41,-493.57 561,-468 592.25,-429.19 599.06,-369.17 600.21,-334.43"/>
<polygon fill="grey" stroke="grey" stroke-width="2" points="603.71,-334.16 600.4,-324.09 596.71,-334.02 603.71,-334.16"/>
</g>
<!-- 16 -->
<g id="node17" class="node">
<title>16</title>
<path fill="none" stroke="#d8d356" stroke-width="2" d="M757,-252C757,-252 695,-252 695,-252 689,-252 683,-246 683,-240 683,-240 683,-228 683,-228 683,-222 689,-216 695,-216 695,-216 757,-216 757,-216 763,-216 769,-222 769,-228 769,-228 769,-240 769,-240 769,-246 763,-252 757,-252"/>
<text text-anchor="middle" x="726" y="-237" font-family="sans" font-size="10.00">concordance</text>
<text text-anchor="middle" x="726" y="-226" font-family="sans" font-size="10.00">caller: samtools</text>
</g>
<!-- 2&#45;&gt;16 -->
<g id="edge30" class="edge">
<title>2&#45;&gt;16</title>
<path fill="none" stroke="grey" stroke-width="2" d="M479.34,-517.86C531.49,-511.32 642.4,-494.59 669,-468 725,-412.03 729.26,-310.68 727.74,-262.23"/>
<polygon fill="grey" stroke="grey" stroke-width="2" points="731.24,-262.03 727.32,-252.18 724.24,-262.32 731.24,-262.03"/>
</g>
<!-- 18 -->
<g id="node19" class="node">
<title>18</title>
<path fill="none" stroke="#56d87b" stroke-width="2" d="M204,-468C204,-468 174,-468 174,-468 168,-468 162,-462 162,-456 162,-456 162,-444 162,-444 162,-438 168,-432 174,-432 174,-432 204,-432 204,-432 210,-432 216,-438 216,-444 216,-444 216,-456 216,-456 216,-462 210,-468 204,-468"/>
<text text-anchor="middle" x="189" y="-447.5" font-family="sans" font-size="10.00">stats</text>
</g>
<!-- 2&#45;&gt;18 -->
<g id="edge41" class="edge">
<title>2&#45;&gt;18</title>
<path fill="none" stroke="grey" stroke-width="2" d="M424.84,-513.77C377.38,-501.14 279.28,-475.03 225.77,-460.79"/>
<polygon fill="grey" stroke="grey" stroke-width="2" points="226.57,-457.38 216.01,-458.19 224.77,-464.14 226.57,-457.38"/>
</g>
<!-- 19 -->
<g id="node20" class="node">
<title>19</title>
<path fill="none" stroke="#d88556" stroke-width="2" d="M81.5,-252C81.5,-252 40.5,-252 40.5,-252 34.5,-252 28.5,-246 28.5,-240 28.5,-240 28.5,-228 28.5,-228 28.5,-222 34.5,-216 40.5,-216 40.5,-216 81.5,-216 81.5,-216 87.5,-216 93.5,-222 93.5,-228 93.5,-228 93.5,-240 93.5,-240 93.5,-246 87.5,-252 81.5,-252"/>
<text text-anchor="middle" x="61" y="-231.5" font-family="sans" font-size="10.00">hs_metrics</text>
</g>
<!-- 2&#45;&gt;19 -->
<g id="edge42" class="edge">
<title>2&#45;&gt;19</title>
<path fill="none" stroke="grey" stroke-width="2" d="M424.95,-520.09C354.61,-517.21 168.26,-506.08 122,-468 60.19,-417.12 56.71,-312.03 58.89,-262.27"/>
<polygon fill="grey" stroke="grey" stroke-width="2" points="62.39,-262.43 59.44,-252.25 55.4,-262.04 62.39,-262.43"/>
</g>
<!-- 20 -->
<g id="node21" class="node">
<title>20</title>
<path fill="none" stroke="#d85656" stroke-width="2" d="M120,-324C120,-324 90,-324 90,-324 84,-324 78,-318 78,-312 78,-312 78,-300 78,-300 78,-294 84,-288 90,-288 90,-288 120,-288 120,-288 126,-288 132,-294 132,-300 132,-300 132,-312 132,-312 132,-318 126,-324 120,-324"/>
<text text-anchor="middle" x="105" y="-303.5" font-family="sans" font-size="10.00">gc</text>
</g>
<!-- 2&#45;&gt;20 -->
<g id="edge43" class="edge">
<title>2&#45;&gt;20</title>
<path fill="none" stroke="grey" stroke-width="2" d="M424.97,-519.76C359.17,-516.19 193.13,-503.79 153,-468 114.73,-433.87 106.38,-370.68 104.91,-334.45"/>
<polygon fill="grey" stroke="grey" stroke-width="2" points="108.4,-334.04 104.65,-324.13 101.41,-334.21 108.4,-334.04"/>
</g>
<!-- 22 -->
<g id="node23" class="node">
<title>22</title>
<path fill="none" stroke="#56b9d8" stroke-width="2" d="M514,-180C514,-180 484,-180 484,-180 478,-180 472,-174 472,-168 472,-168 472,-156 472,-156 472,-150 478,-144 484,-144 484,-144 514,-144 514,-144 520,-144 526,-150 526,-156 526,-156 526,-168 526,-168 526,-174 520,-180 514,-180"/>
<text text-anchor="middle" x="499" y="-159.5" font-family="sans" font-size="10.00">bcfstats</text>
</g>
<!-- 2&#45;&gt;22 -->
<g id="edge45" class="edge">
<title>2&#45;&gt;22</title>
<path fill="none" stroke="grey" stroke-width="2" d="M442.84,-503.68C428.42,-474.26 403.14,-412.6 414,-360 427.35,-295.37 462.93,-225.84 483.58,-189.15"/>
<polygon fill="grey" stroke="grey" stroke-width="2" points="486.81,-190.55 488.73,-180.13 480.73,-187.08 486.81,-190.55"/>
</g>
<!-- 3 -->
<g id="node4" class="node">
<title>3</title>
<path fill="none" stroke="#568ad8" stroke-width="2" d="M220.5,-612C220.5,-612 155.5,-612 155.5,-612 149.5,-612 143.5,-606 143.5,-600 143.5,-600 143.5,-588 143.5,-588 143.5,-582 149.5,-576 155.5,-576 155.5,-576 220.5,-576 220.5,-576 226.5,-576 232.5,-582 232.5,-588 232.5,-588 232.5,-600 232.5,-600 232.5,-606 226.5,-612 220.5,-612"/>
<text text-anchor="middle" x="188" y="-597" font-family="sans" font-size="10.00">mark_duplicates</text>
<text text-anchor="middle" x="188" y="-586" font-family="sans" font-size="10.00">sample: chr19</text>
</g>
<!-- 3&#45;&gt;2 -->
<g id="edge10" class="edge">
<title>3&#45;&gt;2</title>
<path fill="none" stroke="grey" stroke-width="2" d="M232.78,-581.13C284.04,-567.53 367.06,-545.52 414.87,-532.85"/>
<polygon fill="grey" stroke="grey" stroke-width="2" points="416.03,-536.16 424.8,-530.21 414.24,-529.39 416.03,-536.16"/>
</g>
<!-- 17 -->
<g id="node18" class="node">
<title>17</title>
<path fill="none" stroke="#61d856" stroke-width="2" d="M247,-108C247,-108 217,-108 217,-108 211,-108 205,-102 205,-96 205,-96 205,-84 205,-84 205,-78 211,-72 217,-72 217,-72 247,-72 247,-72 253,-72 259,-78 259,-84 259,-84 259,-96 259,-96 259,-102 253,-108 247,-108"/>
<text text-anchor="middle" x="232" y="-87.5" font-family="sans" font-size="10.00">multiqc</text>
</g>
<!-- 3&#45;&gt;17 -->
<g id="edge32" class="edge">
<title>3&#45;&gt;17</title>
<path fill="none" stroke="grey" stroke-width="2" d="M143.45,-580.85C87.85,-562.65 0,-522.58 0,-451 0,-451 0,-451 0,-233 0,-142.68 129.51,-108.05 195,-96.32"/>
<polygon fill="grey" stroke="grey" stroke-width="2" points="195.66,-99.76 204.93,-94.63 194.49,-92.86 195.66,-99.76"/>
</g>
<!-- 4&#45;&gt;0 -->
<g id="edge2" class="edge">
<title>4&#45;&gt;0</title>
<path fill="none" stroke="grey" stroke-width="2" d="M853.22,-359.97C850.6,-333.34 846,-280.21 846,-235 846,-235 846,-235 846,-161 846,-118.66 841.52,-102.35 812,-72 787.5,-46.82 749.29,-33.12 720.99,-26"/>
<polygon fill="grey" stroke="grey" stroke-width="2" points="721.59,-22.54 711.06,-23.66 719.99,-29.36 721.59,-22.54"/>
</g>
<!-- 5 -->
<g id="node6" class="node">
<title>5</title>
<path fill="none" stroke="#56d0d8" stroke-width="2" d="M434.5,-108C434.5,-108 379.5,-108 379.5,-108 373.5,-108 367.5,-102 367.5,-96 367.5,-96 367.5,-84 367.5,-84 367.5,-78 373.5,-72 379.5,-72 379.5,-72 434.5,-72 434.5,-72 440.5,-72 446.5,-78 446.5,-84 446.5,-84 446.5,-96 446.5,-96 446.5,-102 440.5,-108 434.5,-108"/>
<text text-anchor="middle" x="407" y="-87.5" font-family="sans" font-size="10.00">plot_coverage</text>
</g>
<!-- 5&#45;&gt;0 -->
<g id="edge3" class="edge">
<title>5&#45;&gt;0</title>
<path fill="none" stroke="grey" stroke-width="2" d="M446.69,-78.97C500.26,-65.43 594.99,-41.49 647.1,-28.33"/>
<polygon fill="grey" stroke="grey" stroke-width="2" points="648.09,-31.69 656.92,-25.84 646.37,-24.9 648.09,-31.69"/>
</g>
<!-- 6&#45;&gt;5 -->
<g id="edge12" class="edge">
<title>6&#45;&gt;5</title>
<path fill="none" stroke="grey" stroke-width="2" d="M407,-143.7C407,-135.98 407,-126.71 407,-118.11"/>
<polygon fill="grey" stroke="grey" stroke-width="2" points="410.5,-118.1 407,-108.1 403.5,-118.1 410.5,-118.1"/>
</g>
<!-- 6&#45;&gt;17 -->
<g id="edge34" class="edge">
<title>6&#45;&gt;17</title>
<path fill="none" stroke="grey" stroke-width="2" d="M364.19,-143.88C334.86,-132.15 296.38,-116.75 268.5,-105.6"/>
<polygon fill="grey" stroke="grey" stroke-width="2" points="269.7,-102.31 259.12,-101.85 267.1,-108.81 269.7,-102.31"/>
</g>
<!-- 7 -->
<g id="node8" class="node">
<title>7</title>
<path fill="none" stroke="#d8a456" stroke-width="2" d="M292,-180C292,-180 238,-180 238,-180 232,-180 226,-174 226,-168 226,-168 226,-156 226,-156 226,-150 232,-144 238,-144 238,-144 292,-144 292,-144 298,-144 304,-150 304,-156 304,-156 304,-168 304,-168 304,-174 298,-180 292,-180"/>
<text text-anchor="middle" x="265" y="-159.5" font-family="sans" font-size="10.00">DeepT_target</text>
</g>
<!-- 7&#45;&gt;5 -->
<g id="edge13" class="edge">
<title>7&#45;&gt;5</title>
<path fill="none" stroke="grey" stroke-width="2" d="M299.74,-143.88C318.82,-134.47 342.68,-122.71 363.05,-112.67"/>
<polygon fill="grey" stroke="grey" stroke-width="2" points="364.71,-115.75 372.13,-108.19 361.61,-109.47 364.71,-115.75"/>
</g>
<!-- 7&#45;&gt;17 -->
<g id="edge35" class="edge">
<title>7&#45;&gt;17</title>
<path fill="none" stroke="grey" stroke-width="2" d="M256.84,-143.7C253.09,-135.73 248.55,-126.1 244.38,-117.26"/>
<polygon fill="grey" stroke="grey" stroke-width="2" points="247.49,-115.66 240.06,-108.1 241.16,-118.64 247.49,-115.66"/>
</g>
<!-- 8&#45;&gt;7 -->
<g id="edge15" class="edge">
<title>8&#45;&gt;7</title>
<path fill="none" stroke="grey" stroke-width="2" d="M290.39,-431.97C285.88,-384.19 273.08,-248.62 267.57,-190.27"/>
<polygon fill="grey" stroke="grey" stroke-width="2" points="271.06,-189.93 266.63,-180.31 264.09,-190.59 271.06,-189.93"/>
</g>
<!-- 12 -->
<g id="node13" class="node">
<title>12</title>
<path fill="none" stroke="#78d856" stroke-width="2" d="M469,-396C469,-396 435,-396 435,-396 429,-396 423,-390 423,-384 423,-384 423,-372 423,-372 423,-366 429,-360 435,-360 435,-360 469,-360 469,-360 475,-360 481,-366 481,-372 481,-372 481,-384 481,-384 481,-390 475,-396 469,-396"/>
<text text-anchor="middle" x="452" y="-375.5" font-family="sans" font-size="10.00">target_gc</text>
</g>
<!-- 8&#45;&gt;12 -->
<g id="edge23" class="edge">
<title>8&#45;&gt;12</title>
<path fill="none" stroke="grey" stroke-width="2" d="M319.14,-437.13C345.01,-425.81 384.24,-408.65 413.37,-395.9"/>
<polygon fill="grey" stroke="grey" stroke-width="2" points="415.07,-398.98 422.83,-391.76 412.26,-392.57 415.07,-398.98"/>
</g>
<!-- 21 -->
<g id="node22" class="node">
<title>21</title>
<path fill="none" stroke="#56a2d8" stroke-width="2" d="M248.5,-396C248.5,-396 205.5,-396 205.5,-396 199.5,-396 193.5,-390 193.5,-384 193.5,-384 193.5,-372 193.5,-372 193.5,-366 199.5,-360 205.5,-360 205.5,-360 248.5,-360 248.5,-360 254.5,-360 260.5,-366 260.5,-372 260.5,-372 260.5,-384 260.5,-384 260.5,-390 254.5,-396 248.5,-396"/>
<text text-anchor="middle" x="227" y="-375.5" font-family="sans" font-size="10.00">oftarget_gc</text>
</g>
<!-- 8&#45;&gt;21 -->
<g id="edge44" class="edge">
<title>8&#45;&gt;21</title>
<path fill="none" stroke="grey" stroke-width="2" d="M275.93,-431.7C268.06,-423.22 258.44,-412.86 249.83,-403.58"/>
<polygon fill="grey" stroke="grey" stroke-width="2" points="252.25,-401.05 242.88,-396.1 247.12,-405.81 252.25,-401.05"/>
</g>
<!-- 9 -->
<g id="node10" class="node">
<title>9</title>
<path fill="none" stroke="#d86e56" stroke-width="2" d="M625,-108C625,-108 591,-108 591,-108 585,-108 579,-102 579,-96 579,-96 579,-84 579,-84 579,-78 585,-72 591,-72 591,-72 625,-72 625,-72 631,-72 637,-78 637,-84 637,-84 637,-96 637,-96 637,-102 631,-108 625,-108"/>
<text text-anchor="middle" x="608" y="-87.5" font-family="sans" font-size="10.00">specificty</text>
</g>
<!-- 9&#45;&gt;0 -->
<g id="edge4" class="edge">
<title>9&#45;&gt;0</title>
<path fill="none" stroke="grey" stroke-width="2" d="M626.79,-71.7C636.17,-63.05 647.68,-52.45 657.91,-43.03"/>
<polygon fill="grey" stroke="grey" stroke-width="2" points="660.45,-45.45 665.43,-36.1 655.7,-40.3 660.45,-45.45"/>
</g>
<!-- 10&#45;&gt;9 -->
<g id="edge17" class="edge">
<title>10&#45;&gt;9</title>
<path fill="none" stroke="grey" stroke-width="2" d="M532.99,-215.71C542.53,-197.6 558.22,-168.46 573,-144 578.42,-135.03 584.63,-125.42 590.31,-116.88"/>
<polygon fill="grey" stroke="grey" stroke-width="2" points="593.31,-118.69 595.97,-108.44 587.5,-114.79 593.31,-118.69"/>
</g>
<!-- 10&#45;&gt;13 -->
<g id="edge25" class="edge">
<title>10&#45;&gt;13</title>
<path fill="none" stroke="grey" stroke-width="2" d="M547.48,-215.7C559.56,-206.8 574.45,-195.82 587.52,-186.2"/>
<polygon fill="grey" stroke="grey" stroke-width="2" points="589.81,-188.85 595.79,-180.1 585.66,-183.22 589.81,-188.85"/>
</g>
<!-- 10&#45;&gt;22 -->
<g id="edge47" class="edge">
<title>10&#45;&gt;22</title>
<path fill="none" stroke="grey" stroke-width="2" d="M517.82,-215.7C515,-207.81 511.61,-198.3 508.48,-189.55"/>
<polygon fill="grey" stroke="grey" stroke-width="2" points="511.77,-188.34 505.11,-180.1 505.18,-190.7 511.77,-188.34"/>
</g>
<!-- 11&#45;&gt;10 -->
<g id="edge20" class="edge">
<title>11&#45;&gt;10</title>
<path fill="none" stroke="grey" stroke-width="2" d="M498.4,-287.7C502.27,-279.73 506.95,-270.1 511.24,-261.26"/>
<polygon fill="grey" stroke="grey" stroke-width="2" points="514.47,-262.63 515.69,-252.1 508.17,-259.57 514.47,-262.63"/>
</g>
<!-- 12&#45;&gt;11 -->
<g id="edge22" class="edge">
<title>12&#45;&gt;11</title>
<path fill="none" stroke="grey" stroke-width="2" d="M461.39,-359.7C465.76,-351.64 471.06,-341.89 475.9,-332.98"/>
<polygon fill="grey" stroke="grey" stroke-width="2" points="479.02,-334.56 480.71,-324.1 472.87,-331.22 479.02,-334.56"/>
</g>
<!-- 12&#45;&gt;15 -->
<g id="edge29" class="edge">
<title>12&#45;&gt;15</title>
<path fill="none" stroke="grey" stroke-width="2" d="M481.24,-363.17C504.84,-352.01 538.18,-336.24 563.53,-324.25"/>
<polygon fill="grey" stroke="grey" stroke-width="2" points="565.27,-327.3 572.82,-319.86 562.28,-320.97 565.27,-327.3"/>
</g>
<!-- 12&#45;&gt;17 -->
<g id="edge38" class="edge">
<title>12&#45;&gt;17</title>
<path fill="none" stroke="grey" stroke-width="2" d="M444.98,-359.74C427.57,-318.56 379.03,-212.83 313,-144 300.09,-130.54 283.15,-118.79 268.1,-109.8"/>
<polygon fill="grey" stroke="grey" stroke-width="2" points="269.44,-106.53 259.03,-104.57 265.95,-112.6 269.44,-106.53"/>
</g>
<!-- 13&#45;&gt;0 -->
<g id="edge6" class="edge">
<title>13&#45;&gt;0</title>
<path fill="none" stroke="grey" stroke-width="2" d="M628.05,-143.96C633.44,-133.64 640.31,-120.16 646,-108 655.64,-87.39 665.71,-63.68 673.06,-45.92"/>
<polygon fill="grey" stroke="grey" stroke-width="2" points="676.49,-46.79 677.05,-36.21 670.01,-44.13 676.49,-46.79"/>
</g>
<!-- 13&#45;&gt;9 -->
<g id="edge18" class="edge">
<title>13&#45;&gt;9</title>
<path fill="none" stroke="grey" stroke-width="2" d="M616.28,-143.7C615.07,-135.98 613.61,-126.71 612.26,-118.11"/>
<polygon fill="grey" stroke="grey" stroke-width="2" points="615.7,-117.44 610.69,-108.1 608.78,-118.53 615.7,-117.44"/>
</g>
<!-- 14 -->
<g id="node15" class="node">
<title>14</title>
<path fill="none" stroke="#d86e56" stroke-width="2" d="M720,-180C720,-180 686,-180 686,-180 680,-180 674,-174 674,-168 674,-168 674,-156 674,-156 674,-150 680,-144 686,-144 686,-144 720,-144 720,-144 726,-144 732,-150 732,-156 732,-156 732,-168 732,-168 732,-174 726,-180 720,-180"/>
<text text-anchor="middle" x="703" y="-159.5" font-family="sans" font-size="10.00">specificty</text>
</g>
<!-- 14&#45;&gt;0 -->
<g id="edge5" class="edge">
<title>14&#45;&gt;0</title>
<path fill="none" stroke="grey" stroke-width="2" d="M700.71,-143.87C697.47,-119.67 691.52,-75.21 687.67,-46.39"/>
<polygon fill="grey" stroke="grey" stroke-width="2" points="691.1,-45.64 686.3,-36.19 684.16,-46.57 691.1,-45.64"/>
</g>
<!-- 15&#45;&gt;14 -->
<g id="edge26" class="edge">
<title>15&#45;&gt;14</title>
<path fill="none" stroke="grey" stroke-width="2" d="M612.42,-287.87C630.37,-263.14 663.66,-217.24 684.49,-188.51"/>
<polygon fill="grey" stroke="grey" stroke-width="2" points="687.49,-190.34 690.53,-180.19 681.83,-186.23 687.49,-190.34"/>
</g>
<!-- 15&#45;&gt;16 -->
<g id="edge31" class="edge">
<title>15&#45;&gt;16</title>
<path fill="none" stroke="grey" stroke-width="2" d="M627.03,-289.98C644.26,-280.41 666.89,-267.84 686.16,-257.14"/>
<polygon fill="grey" stroke="grey" stroke-width="2" points="687.98,-260.13 695.02,-252.21 684.58,-254.01 687.98,-260.13"/>
</g>
<!-- 15&#45;&gt;22 -->
<g id="edge46" class="edge">
<title>15&#45;&gt;22</title>
<path fill="none" stroke="grey" stroke-width="2" d="M594.75,-287.76C588.47,-268.92 576.67,-238.44 560,-216 551.95,-205.16 541.32,-194.98 531.2,-186.49"/>
<polygon fill="grey" stroke="grey" stroke-width="2" points="533.23,-183.63 523.25,-180.07 528.83,-189.08 533.23,-183.63"/>
</g>
<!-- 16&#45;&gt;0 -->
<g id="edge7" class="edge">
<title>16&#45;&gt;0</title>
<path fill="none" stroke="grey" stroke-width="2" d="M732.76,-215.85C738.95,-197.86 746.39,-168.81 741,-144 733.14,-107.83 713.87,-69.58 699.9,-45.06"/>
<polygon fill="grey" stroke="grey" stroke-width="2" points="702.9,-43.26 694.85,-36.37 696.85,-46.78 702.9,-43.26"/>
</g>
<!-- 16&#45;&gt;14 -->
<g id="edge27" class="edge">
<title>16&#45;&gt;14</title>
<path fill="none" stroke="grey" stroke-width="2" d="M720.31,-215.7C717.75,-207.9 714.67,-198.51 711.82,-189.83"/>
<polygon fill="grey" stroke="grey" stroke-width="2" points="715.07,-188.51 708.62,-180.1 708.42,-190.7 715.07,-188.51"/>
</g>
<!-- 17&#45;&gt;0 -->
<g id="edge8" class="edge">
<title>17&#45;&gt;0</title>
<path fill="none" stroke="grey" stroke-width="2" d="M259.26,-84.78C336.75,-72.78 558.42,-38.45 646.88,-24.75"/>
<polygon fill="grey" stroke="grey" stroke-width="2" points="647.65,-28.17 656.99,-23.18 646.58,-21.25 647.65,-28.17"/>
</g>
<!-- 18&#45;&gt;17 -->
<g id="edge33" class="edge">
<title>18&#45;&gt;17</title>
<path fill="none" stroke="grey" stroke-width="2" d="M183.13,-431.74C174.66,-405.25 160,-352.79 160,-307 160,-307 160,-307 160,-233 160,-188.35 188.66,-143.52 209.82,-116.51"/>
<polygon fill="grey" stroke="grey" stroke-width="2" points="212.82,-118.36 216.38,-108.38 207.37,-113.96 212.82,-118.36"/>
</g>
<!-- 19&#45;&gt;17 -->
<g id="edge36" class="edge">
<title>19&#45;&gt;17</title>
<path fill="none" stroke="grey" stroke-width="2" d="M66.19,-215.73C72.92,-196 86.41,-163.89 108,-144 132.58,-121.35 168.31,-107.48 195.11,-99.64"/>
<polygon fill="grey" stroke="grey" stroke-width="2" points="196.2,-102.97 204.9,-96.93 194.33,-96.23 196.2,-102.97"/>
</g>
<!-- 20&#45;&gt;17 -->
<g id="edge37" class="edge">
<title>20&#45;&gt;17</title>
<path fill="none" stroke="grey" stroke-width="2" d="M105.28,-287.72C106.61,-256.16 113.37,-188.39 146,-144 158.45,-127.07 178.08,-114.38 195.45,-105.67"/>
<polygon fill="grey" stroke="grey" stroke-width="2" points="197.26,-108.68 204.8,-101.23 194.27,-102.35 197.26,-108.68"/>
</g>
<!-- 21&#45;&gt;17 -->
<g id="edge39" class="edge">
<title>21&#45;&gt;17</title>
<path fill="none" stroke="grey" stroke-width="2" d="M224.18,-359.94C218.23,-321.3 205.87,-224.21 217,-144 218.18,-135.48 220.39,-126.39 222.75,-118.2"/>
<polygon fill="grey" stroke="grey" stroke-width="2" points="226.17,-118.99 225.76,-108.41 219.48,-116.94 226.17,-118.99"/>
</g>
<!-- 22&#45;&gt;17 -->
<g id="edge40" class="edge">
<title>22&#45;&gt;17</title>
<path fill="none" stroke="grey" stroke-width="2" d="M471.74,-147.38C468.82,-146.15 465.87,-145 463,-144 396.31,-120.91 315.28,-104.97 269.07,-96.96"/>
<polygon fill="grey" stroke="grey" stroke-width="2" points="269.65,-93.51 259.21,-95.28 268.48,-100.41 269.65,-93.51"/>
</g>
</g>
</svg>
